<svg width="361" height="275" viewBox="0 0 361 275" fill="none" xmlns="http://www.w3.org/2000/svg">
<g filter="url(#filter0_d_202_96)">
<path d="M180.5 256L163.597 238.75C103.563 177.723 63.9285 137.343 63.9285 88.0774C63.9285 47.6976 92.1388 16.204 128.043 16.204C148.326 16.204 167.794 26.789 180.5 43.3852C193.206 26.789 212.674 16.204 232.957 16.204C268.861 16.204 297.071 47.6976 297.071 88.0774C297.071 137.343 257.437 177.723 197.403 238.75L180.5 256Z" fill="#EE000C"/>
</g>
<ellipse cx="219.61" cy="113.854" rx="25.1794" ry="23.6702" fill="white"/>
<ellipse cx="140.108" cy="113.854" rx="25.1794" ry="23.6702" fill="white"/>
<path d="M117.726 142.626C135.107 154.087 145.273 154.829 162.49 142.626" stroke="white" stroke-width="2"/>
<g filter="url(#filter1_d_202_96)">
<path fill-rule="evenodd" clip-rule="evenodd" d="M128.286 28.9927C121 28.9927 108.614 39.4575 102.786 50.682C95.5 64.7126 99.1429 96.6005 102.786 106.805C106.429 117.008 95.5 193.539 91.8571 197.366C91.3505 197.898 90.7968 198.899 90.0655 200.221C85.5388 208.406 74.2051 228.899 25.0714 226.702C23.1286 226.702 15.3571 225.002 11.7143 224.151L10.5 222.876C20.619 216.924 41.3429 198.896 43.2857 174.407C46.5238 159.951 46.9286 120.835 46.9286 114.458C46.9286 113.567 46.6918 111.381 46.3505 108.229C44.2477 88.8101 38.1768 32.7461 59.0714 17.3825C83.3571 -0.474671 125.857 4.75799 150.143 18.7886L128.286 28.9927ZM232.714 28.9927C240 28.9927 252.386 39.4575 258.214 50.682C265.5 64.7126 261.857 96.6005 258.214 106.805C254.571 117.008 265.5 193.539 269.143 197.366C269.65 197.898 270.203 198.899 270.935 200.221C275.461 208.406 286.795 228.899 335.929 226.702C337.871 226.702 345.643 225.002 349.286 224.151L350.5 222.876C340.381 216.924 319.657 198.896 317.714 174.407C314.476 159.951 314.072 120.835 314.072 114.458C314.072 113.567 314.308 111.381 314.65 108.229C316.752 88.8101 322.823 32.7461 301.929 17.3825C277.643 -0.474671 235.143 4.75799 210.857 18.7886L232.714 28.9927Z" fill="#111111"/>
</g>
<defs>
<filter id="filter0_d_202_96" x="48.9285" y="5.20398" width="263.143" height="269.796" filterUnits="userSpaceOnUse" color-interpolation-filters="sRGB">
<feFlood flood-opacity="0" result="BackgroundImageFix"/>
<feColorMatrix in="SourceAlpha" type="matrix" values="0 0 0 0 0 0 0 0 0 0 0 0 0 0 0 0 0 0 127 0" result="hardAlpha"/>
<feOffset dy="4"/>
<feGaussianBlur stdDeviation="7.5"/>
<feComposite in2="hardAlpha" operator="out"/>
<feColorMatrix type="matrix" values="0 0 0 0 0.658594 0 0 0 0 0.658594 0 0 0 0 0.658594 0 0 0 0.25 0"/>
<feBlend mode="normal" in2="BackgroundImageFix" result="effect1_dropShadow_202_96"/>
<feBlend mode="normal" in="SourceGraphic" in2="effect1_dropShadow_202_96" result="shape"/>
</filter>
<filter id="filter1_d_202_96" x="0.5" y="0" width="360" height="240.866" filterUnits="userSpaceOnUse" color-interpolation-filters="sRGB">
<feFlood flood-opacity="0" result="BackgroundImageFix"/>
<feColorMatrix in="SourceAlpha" type="matrix" values="0 0 0 0 0 0 0 0 0 0 0 0 0 0 0 0 0 0 127 0" result="hardAlpha"/>
<feOffset dy="4"/>
<feGaussianBlur stdDeviation="5"/>
<feComposite in2="hardAlpha" operator="out"/>
<feColorMatrix type="matrix" values="0 0 0 0 0.461624 0 0 0 0 0.461624 0 0 0 0 0.461624 0 0 0 0.25 0"/>
<feBlend mode="normal" in2="BackgroundImageFix" result="effect1_dropShadow_202_96"/>
<feBlend mode="normal" in="SourceGraphic" in2="effect1_dropShadow_202_96" result="shape"/>
</filter>
</defs>
</svg>
