<svg width="140" height="96" viewBox="0 0 140 96" fill="none" xmlns="http://www.w3.org/2000/svg">
<path d="M70 96L63.04 89.2382C38.32 65.3155 22 49.4866 22 30.1744C22 14.3455 33.616 2 48.4 2C56.752 2 64.768 6.14932 70 12.655C75.232 6.14932 83.248 2 91.6 2C106.384 2 118 14.3455 118 30.1744C118 49.4866 101.68 65.3155 76.96 89.2382L70 96Z" fill="#EE000C"/>
<ellipse cx="86.104" cy="40.2787" rx="10.368" ry="9.2787" fill="white"/>
<ellipse cx="53.368" cy="40.2787" rx="10.368" ry="9.2787" fill="white"/>
<path d="M44.152 51.5574C51.3088 56.0502 55.4947 56.341 62.584 51.5574" stroke="white" stroke-width="2"/>
<path fill-rule="evenodd" clip-rule="evenodd" d="M48.5 9.01313C45.5 9.01313 40.4 13.1153 38 17.5153C35 23.0153 36.5 35.5154 38 39.5154C39.5 43.5153 35 73.5153 33.5 75.0154C33.2914 75.224 33.0634 75.6164 32.7623 76.1347C30.8983 79.3432 26.2315 87.3763 6 86.5154C5.2 86.5154 2 85.8487 0.5 85.5154L0 85.0154C4.16667 82.682 12.7 75.6153 13.5 66.0154C14.8333 60.3487 15 45.0154 15 42.5154C15 42.1663 14.9025 41.3092 14.762 40.0738C13.8961 32.4615 11.3963 10.4845 20 4.46192C30 -2.53807 47.5 -0.486866 57.5 5.01313L48.5 9.01313ZM91.5 9.01313C94.5 9.01313 99.6 13.1153 102 17.5153C105 23.0153 103.5 35.5154 102 39.5154C100.5 43.5153 105 73.5153 106.5 75.0154C106.709 75.224 106.937 75.6164 107.238 76.1347C109.102 79.3432 113.768 87.3763 134 86.5154C134.8 86.5154 138 85.8487 139.5 85.5154L140 85.0154C135.833 82.682 127.3 75.6153 126.5 66.0154C125.167 60.3487 125 45.0154 125 42.5154C125 42.1663 125.097 41.3092 125.238 40.0738C126.104 32.4615 128.604 10.4845 120 4.46192C110 -2.53807 92.5 -0.486866 82.5 5.01313L91.5 9.01313Z" fill="#111111"/>
</svg>
