<svg width="484" height="98" viewBox="0 0 484 98" fill="none" xmlns="http://www.w3.org/2000/svg">
<g filter="url(#filter0_d_147_68)">
<path d="M45 0L83.9711 22.5V67.5L45 90L6.02886 67.5V22.5L45 0Z" fill="#989898"/>
</g>
<g filter="url(#filter1_d_147_68)">
<path d="M175 90L168.475 83.5259C145.3 60.6213 130 45.4659 130 26.9755C130 11.8202 140.89 0 154.75 0C162.58 0 170.095 3.97275 175 10.2016C179.905 3.97275 187.42 0 195.25 0C209.11 0 220 11.8202 220 26.9755C220 45.4659 204.7 60.6213 181.525 83.5259L175 90Z" fill="#989898"/>
</g>
<g filter="url(#filter2_d_147_68)">
<path d="M305 0L336.82 13.1802L350 45L336.82 76.8198L305 90L273.18 76.8198L260 45L273.18 13.1802L305 0Z" fill="#989898"/>
</g>
<g filter="url(#filter3_d_147_68)">
<path d="M435 0C423.069 0.0116974 411.631 4.07922 403.195 11.3102C394.759 18.5412 390.014 28.3452 390 38.5714C390 48.2143 395.888 60.6938 405.755 71.9196C415.683 83.2299 426.614 90 435 90C443.386 90 454.317 83.246 464.245 71.9196C474.113 60.6696 480 48.2143 480 38.5714C479.986 28.3452 475.241 18.5412 466.805 11.3102C458.369 4.07922 446.931 0.0116974 435 0Z" fill="#989898"/>
</g>
<defs>
<filter id="filter0_d_147_68" x="2.02887" y="0" width="85.9423" height="98" filterUnits="userSpaceOnUse" color-interpolation-filters="sRGB">
<feFlood flood-opacity="0" result="BackgroundImageFix"/>
<feColorMatrix in="SourceAlpha" type="matrix" values="0 0 0 0 0 0 0 0 0 0 0 0 0 0 0 0 0 0 127 0" result="hardAlpha"/>
<feOffset dy="4"/>
<feGaussianBlur stdDeviation="2"/>
<feComposite in2="hardAlpha" operator="out"/>
<feColorMatrix type="matrix" values="0 0 0 0 0 0 0 0 0 0 0 0 0 0 0 0 0 0 0.25 0"/>
<feBlend mode="normal" in2="BackgroundImageFix" result="effect1_dropShadow_147_68"/>
<feBlend mode="normal" in="SourceGraphic" in2="effect1_dropShadow_147_68" result="shape"/>
</filter>
<filter id="filter1_d_147_68" x="126" y="0" width="98" height="98" filterUnits="userSpaceOnUse" color-interpolation-filters="sRGB">
<feFlood flood-opacity="0" result="BackgroundImageFix"/>
<feColorMatrix in="SourceAlpha" type="matrix" values="0 0 0 0 0 0 0 0 0 0 0 0 0 0 0 0 0 0 127 0" result="hardAlpha"/>
<feOffset dy="4"/>
<feGaussianBlur stdDeviation="2"/>
<feComposite in2="hardAlpha" operator="out"/>
<feColorMatrix type="matrix" values="0 0 0 0 0 0 0 0 0 0 0 0 0 0 0 0 0 0 0.25 0"/>
<feBlend mode="normal" in2="BackgroundImageFix" result="effect1_dropShadow_147_68"/>
<feBlend mode="normal" in="SourceGraphic" in2="effect1_dropShadow_147_68" result="shape"/>
</filter>
<filter id="filter2_d_147_68" x="256" y="0" width="98" height="98" filterUnits="userSpaceOnUse" color-interpolation-filters="sRGB">
<feFlood flood-opacity="0" result="BackgroundImageFix"/>
<feColorMatrix in="SourceAlpha" type="matrix" values="0 0 0 0 0 0 0 0 0 0 0 0 0 0 0 0 0 0 127 0" result="hardAlpha"/>
<feOffset dy="4"/>
<feGaussianBlur stdDeviation="2"/>
<feComposite in2="hardAlpha" operator="out"/>
<feColorMatrix type="matrix" values="0 0 0 0 0 0 0 0 0 0 0 0 0 0 0 0 0 0 0.25 0"/>
<feBlend mode="normal" in2="BackgroundImageFix" result="effect1_dropShadow_147_68"/>
<feBlend mode="normal" in="SourceGraphic" in2="effect1_dropShadow_147_68" result="shape"/>
</filter>
<filter id="filter3_d_147_68" x="386" y="0" width="98" height="98" filterUnits="userSpaceOnUse" color-interpolation-filters="sRGB">
<feFlood flood-opacity="0" result="BackgroundImageFix"/>
<feColorMatrix in="SourceAlpha" type="matrix" values="0 0 0 0 0 0 0 0 0 0 0 0 0 0 0 0 0 0 127 0" result="hardAlpha"/>
<feOffset dy="4"/>
<feGaussianBlur stdDeviation="2"/>
<feComposite in2="hardAlpha" operator="out"/>
<feColorMatrix type="matrix" values="0 0 0 0 0 0 0 0 0 0 0 0 0 0 0 0 0 0 0.25 0"/>
<feBlend mode="normal" in2="BackgroundImageFix" result="effect1_dropShadow_147_68"/>
<feBlend mode="normal" in="SourceGraphic" in2="effect1_dropShadow_147_68" result="shape"/>
</filter>
</defs>
</svg>
