<svg width="379" height="37" viewBox="0 0 379 37" fill="none" xmlns="http://www.w3.org/2000/svg">
<g filter="url(#filter0_d_147_3)">
<ellipse cx="14" cy="8" rx="9" ry="8" fill="white"/>
<ellipse cx="41" cy="8" rx="9" ry="8" fill="white"/>
<path d="M5 17C11.2125 20.8737 14.8462 21.1244 21 17" stroke="white" stroke-width="2"/>
</g>
<g filter="url(#filter1_d_147_3)">
<ellipse cx="106" cy="8" rx="9" ry="8" fill="white"/>
<ellipse cx="79" cy="8" rx="9" ry="8" fill="white"/>
<path d="M98 17C104.213 20.8737 107.846 21.1244 114 17" stroke="white" stroke-width="2"/>
<path d="M71 17C77.2125 20.8737 80.8462 21.1244 87 17" stroke="white" stroke-width="2"/>
</g>
<g filter="url(#filter2_d_147_3)">
<path d="M136 17C142.213 20.8737 145.846 21.1244 152 17" stroke="white" stroke-width="2"/>
<path d="M136 21C142.213 24.8737 145.846 25.1244 152 21" stroke="white" stroke-width="2"/>
<path d="M163 17C169.213 20.8737 172.846 21.1244 179 17" stroke="white" stroke-width="2"/>
<ellipse cx="171" cy="8" rx="9" ry="8" fill="white"/>
<ellipse cx="144" cy="8" rx="9" ry="8" fill="white"/>
</g>
<g filter="url(#filter3_d_147_3)">
<ellipse cx="236" cy="8" rx="9" ry="8" fill="white"/>
<ellipse cx="209" cy="8" rx="9" ry="8" fill="white"/>
<path d="M201 17C207.213 20.8737 210.846 21.1244 217 17" stroke="white" stroke-width="2"/>
<path d="M201 21C207.213 24.8737 210.846 25.1244 217 21" stroke="white" stroke-width="2"/>
<path d="M228 21C234.213 24.8737 237.846 25.1244 244 21" stroke="white" stroke-width="2"/>
<path d="M228 17C234.213 20.8737 237.846 21.1244 244 17" stroke="white" stroke-width="2"/>
</g>
<g filter="url(#filter4_d_147_3)">
<ellipse cx="301" cy="8" rx="9" ry="8" fill="white"/>
<ellipse cx="274" cy="8" rx="9" ry="8" fill="white"/>
<path d="M266 17C272.213 20.8737 275.846 21.1244 282 17" stroke="white" stroke-width="2"/>
<path d="M266 21C272.213 24.8737 275.846 25.1244 282 21" stroke="white" stroke-width="2"/>
<path d="M293 21C299.213 24.8737 302.846 25.1244 309 21" stroke="white" stroke-width="2"/>
<path d="M266 25C272.213 28.8737 275.846 29.1244 282 25" stroke="white" stroke-width="2"/>
<path d="M293 17C299.213 20.8737 302.846 21.1244 309 17" stroke="white" stroke-width="2"/>
</g>
<g filter="url(#filter5_d_147_3)">
<ellipse cx="366" cy="8" rx="9" ry="8" fill="white"/>
<ellipse cx="339" cy="8" rx="9" ry="8" fill="white"/>
<path d="M331 17C337.213 20.8737 340.846 21.1244 347 17" stroke="white" stroke-width="2"/>
<path d="M331 21C337.213 24.8737 340.846 25.1244 347 21" stroke="white" stroke-width="2"/>
<path d="M358 21C364.213 24.8737 367.846 25.1244 374 21" stroke="white" stroke-width="2"/>
<path d="M331 25C337.213 28.8737 340.846 29.1244 347 25" stroke="white" stroke-width="2"/>
<path d="M358 25C364.213 28.8737 367.846 29.1244 374 25" stroke="white" stroke-width="2"/>
<path d="M358 17C364.213 20.8737 367.846 21.1244 374 17" stroke="white" stroke-width="2"/>
</g>
<defs>
<filter id="filter0_d_147_3" x="0.470886" y="0" width="53.5291" height="38" filterUnits="userSpaceOnUse" color-interpolation-filters="sRGB">
<feFlood flood-opacity="0" result="BackgroundImageFix"/>
<feColorMatrix in="SourceAlpha" type="matrix" values="0 0 0 0 0 0 0 0 0 0 0 0 0 0 0 0 0 0 127 0" result="hardAlpha"/>
<feOffset dy="4"/>
<feGaussianBlur stdDeviation="2"/>
<feComposite in2="hardAlpha" operator="out"/>
<feColorMatrix type="matrix" values="0 0 0 0 0 0 0 0 0 0 0 0 0 0 0 0 0 0 0.25 0"/>
<feBlend mode="normal" in2="BackgroundImageFix" result="effect1_dropShadow_147_3"/>
<feBlend mode="normal" in="SourceGraphic" in2="effect1_dropShadow_147_3" result="shape"/>
</filter>
<filter id="filter1_d_147_3" x="66" y="0" width="53" height="38" filterUnits="userSpaceOnUse" color-interpolation-filters="sRGB">
<feFlood flood-opacity="0" result="BackgroundImageFix"/>
<feColorMatrix in="SourceAlpha" type="matrix" values="0 0 0 0 0 0 0 0 0 0 0 0 0 0 0 0 0 0 127 0" result="hardAlpha"/>
<feOffset dy="4"/>
<feGaussianBlur stdDeviation="2"/>
<feComposite in2="hardAlpha" operator="out"/>
<feColorMatrix type="matrix" values="0 0 0 0 0 0 0 0 0 0 0 0 0 0 0 0 0 0 0.25 0"/>
<feBlend mode="normal" in2="BackgroundImageFix" result="effect1_dropShadow_147_3"/>
<feBlend mode="normal" in="SourceGraphic" in2="effect1_dropShadow_147_3" result="shape"/>
</filter>
<filter id="filter2_d_147_3" x="131" y="0" width="53" height="38" filterUnits="userSpaceOnUse" color-interpolation-filters="sRGB">
<feFlood flood-opacity="0" result="BackgroundImageFix"/>
<feColorMatrix in="SourceAlpha" type="matrix" values="0 0 0 0 0 0 0 0 0 0 0 0 0 0 0 0 0 0 127 0" result="hardAlpha"/>
<feOffset dy="4"/>
<feGaussianBlur stdDeviation="2"/>
<feComposite in2="hardAlpha" operator="out"/>
<feColorMatrix type="matrix" values="0 0 0 0 0 0 0 0 0 0 0 0 0 0 0 0 0 0 0.25 0"/>
<feBlend mode="normal" in2="BackgroundImageFix" result="effect1_dropShadow_147_3"/>
<feBlend mode="normal" in="SourceGraphic" in2="effect1_dropShadow_147_3" result="shape"/>
</filter>
<filter id="filter3_d_147_3" x="196" y="0" width="53" height="38" filterUnits="userSpaceOnUse" color-interpolation-filters="sRGB">
<feFlood flood-opacity="0" result="BackgroundImageFix"/>
<feColorMatrix in="SourceAlpha" type="matrix" values="0 0 0 0 0 0 0 0 0 0 0 0 0 0 0 0 0 0 127 0" result="hardAlpha"/>
<feOffset dy="4"/>
<feGaussianBlur stdDeviation="2"/>
<feComposite in2="hardAlpha" operator="out"/>
<feColorMatrix type="matrix" values="0 0 0 0 0 0 0 0 0 0 0 0 0 0 0 0 0 0 0.25 0"/>
<feBlend mode="normal" in2="BackgroundImageFix" result="effect1_dropShadow_147_3"/>
<feBlend mode="normal" in="SourceGraphic" in2="effect1_dropShadow_147_3" result="shape"/>
</filter>
<filter id="filter4_d_147_3" x="261" y="0" width="53" height="38" filterUnits="userSpaceOnUse" color-interpolation-filters="sRGB">
<feFlood flood-opacity="0" result="BackgroundImageFix"/>
<feColorMatrix in="SourceAlpha" type="matrix" values="0 0 0 0 0 0 0 0 0 0 0 0 0 0 0 0 0 0 127 0" result="hardAlpha"/>
<feOffset dy="4"/>
<feGaussianBlur stdDeviation="2"/>
<feComposite in2="hardAlpha" operator="out"/>
<feColorMatrix type="matrix" values="0 0 0 0 0 0 0 0 0 0 0 0 0 0 0 0 0 0 0.25 0"/>
<feBlend mode="normal" in2="BackgroundImageFix" result="effect1_dropShadow_147_3"/>
<feBlend mode="normal" in="SourceGraphic" in2="effect1_dropShadow_147_3" result="shape"/>
</filter>
<filter id="filter5_d_147_3" x="326" y="0" width="53" height="38" filterUnits="userSpaceOnUse" color-interpolation-filters="sRGB">
<feFlood flood-opacity="0" result="BackgroundImageFix"/>
<feColorMatrix in="SourceAlpha" type="matrix" values="0 0 0 0 0 0 0 0 0 0 0 0 0 0 0 0 0 0 127 0" result="hardAlpha"/>
<feOffset dy="4"/>
<feGaussianBlur stdDeviation="2"/>
<feComposite in2="hardAlpha" operator="out"/>
<feColorMatrix type="matrix" values="0 0 0 0 0 0 0 0 0 0 0 0 0 0 0 0 0 0 0.25 0"/>
<feBlend mode="normal" in2="BackgroundImageFix" result="effect1_dropShadow_147_3"/>
<feBlend mode="normal" in="SourceGraphic" in2="effect1_dropShadow_147_3" result="shape"/>
</filter>
</defs>
</svg>
