<svg width="389" height="30" viewBox="0 0 389 30" fill="none" xmlns="http://www.w3.org/2000/svg">
<ellipse cx="10" cy="8" rx="9" ry="8" fill="white"/>
<ellipse cx="37" cy="8" rx="9" ry="8" fill="white"/>
<path d="M1 17C7.21253 20.8737 10.8462 21.1244 17 17" stroke="white" stroke-width="2"/>
<ellipse cx="102" cy="8" rx="9" ry="8" fill="white"/>
<ellipse cx="75" cy="8" rx="9" ry="8" fill="white"/>
<path d="M94 17C100.213 20.8737 103.846 21.1244 110 17" stroke="white" stroke-width="2"/>
<path d="M67 17C73.2125 20.8737 76.8462 21.1244 83 17" stroke="white" stroke-width="2"/>
<path d="M132 17C138.213 20.8737 141.846 21.1244 148 17" stroke="white" stroke-width="2"/>
<path d="M132 21C138.213 24.8737 141.846 25.1244 148 21" stroke="white" stroke-width="2"/>
<path d="M159 17C165.213 20.8737 168.846 21.1244 175 17" stroke="white" stroke-width="2"/>
<ellipse cx="167" cy="8" rx="9" ry="8" fill="white"/>
<ellipse cx="140" cy="8" rx="9" ry="8" fill="white"/>
<ellipse cx="241" cy="8" rx="9" ry="8" fill="white"/>
<ellipse cx="214" cy="8" rx="9" ry="8" fill="white"/>
<path d="M206 17C212.213 20.8737 215.846 21.1244 222 17" stroke="white" stroke-width="2"/>
<path d="M206 21C212.213 24.8737 215.846 25.1244 222 21" stroke="white" stroke-width="2"/>
<path d="M233 21C239.213 24.8737 242.846 25.1244 249 21" stroke="white" stroke-width="2"/>
<path d="M233 17C239.213 20.8737 242.846 21.1244 249 17" stroke="white" stroke-width="2"/>
<ellipse cx="306" cy="8" rx="9" ry="8" fill="white"/>
<ellipse cx="279" cy="8" rx="9" ry="8" fill="white"/>
<path d="M271 17C277.213 20.8737 280.846 21.1244 287 17" stroke="white" stroke-width="2"/>
<path d="M271 21C277.213 24.8737 280.846 25.1244 287 21" stroke="white" stroke-width="2"/>
<path d="M298 21C304.213 24.8737 307.846 25.1244 314 21" stroke="white" stroke-width="2"/>
<path d="M271 25C277.213 28.8737 280.846 29.1244 287 25" stroke="white" stroke-width="2"/>
<path d="M298 17C304.213 20.8737 307.846 21.1244 314 17" stroke="white" stroke-width="2"/>
<ellipse cx="371" cy="8" rx="9" ry="8" fill="white"/>
<ellipse cx="344" cy="8" rx="9" ry="8" fill="white"/>
<path d="M336 17C342.213 20.8737 345.846 21.1244 352 17" stroke="white" stroke-width="2"/>
<path d="M336 21C342.213 24.8737 345.846 25.1244 352 21" stroke="white" stroke-width="2"/>
<path d="M363 21C369.213 24.8737 372.846 25.1244 379 21" stroke="white" stroke-width="2"/>
<path d="M336 25C342.213 28.8737 345.846 29.1244 352 25" stroke="white" stroke-width="2"/>
<path d="M363 25C369.213 28.8737 372.846 29.1244 379 25" stroke="white" stroke-width="2"/>
<path d="M363 17C369.213 20.8737 372.846 21.1244 379 17" stroke="white" stroke-width="2"/>
</svg>
