<svg width="482" height="108" viewBox="0 0 482 108" fill="none" xmlns="http://www.w3.org/2000/svg">
<g filter="url(#filter0_d_150_69)">
<path fill-rule="evenodd" clip-rule="evenodd" d="M55.9643 10.4102C52.75 10.4102 47.2857 15.1483 44.7143 20.2304C41.5 26.5829 43.1071 41.0206 44.7143 45.6405C46.3214 50.2605 41.5 84.9107 39.8929 86.6433C39.6693 86.8843 39.4251 87.3375 39.1024 87.9362C37.1054 91.642 32.1052 100.92 10.4286 99.9259C9.57143 99.9259 6.14286 99.1559 4.53571 98.7709L4 98.1934C8.46429 95.4984 17.6071 87.3363 18.4643 76.2482C19.8929 69.7032 20.0714 51.9931 20.0714 49.1056C20.0714 48.7024 19.967 47.7124 19.8164 46.2855C18.8887 37.4933 16.2104 12.1097 25.4286 5.15355C36.1429 -2.93149 54.8929 -0.562334 65.6071 5.79021L55.9643 10.4102ZM102.036 10.4102C105.25 10.4102 110.714 15.1483 113.286 20.2304C116.5 26.5829 114.893 41.0206 113.286 45.6405C111.679 50.2605 116.5 84.9107 118.107 86.6433C118.331 86.8843 118.575 87.3375 118.898 87.9362C120.895 91.642 125.895 100.92 147.571 99.9259C148.429 99.9259 151.857 99.1559 153.464 98.7709L154 98.1934C149.536 95.4984 140.393 87.3363 139.536 76.2482C138.107 69.7032 137.929 51.9931 137.929 49.1056C137.929 48.7024 138.033 47.7124 138.184 46.2855C139.111 37.4933 141.79 12.1097 132.571 5.15355C121.857 -2.93149 103.107 -0.562334 92.3928 5.79021L102.036 10.4102Z" fill="#989898"/>
</g>
<g filter="url(#filter1_d_150_69)">
<path d="M316 61.561C315.999 59.8198 315.532 58.1075 314.644 56.585C313.757 55.0626 312.477 53.7799 310.926 52.8575C311.385 51.7149 311.667 50.4857 311.667 49.1864C311.661 46.6773 310.692 44.2567 308.942 42.3808C307.191 40.5048 304.78 39.3031 302.163 39.002C302.675 37.6697 303 36.2507 303 34.7493C303 31.4673 301.63 28.3198 299.192 25.9991C296.754 23.6784 293.447 22.3746 289.999 22.3746C288.288 22.3746 286.663 22.7088 285.168 23.2821C284.431 20.6602 282.806 18.3424 280.547 16.6872C278.287 15.0319 275.517 14.1314 272.666 14.1249C268.896 14.1249 265.533 15.6758 263.158 18.1136C261.329 13.3865 256.597 10 250.999 10C245.4 10 240.668 13.3865 238.839 18.1136C237.63 16.8587 236.161 15.8562 234.525 15.1696C232.888 14.483 231.12 14.1273 229.331 14.1249C226.48 14.1309 223.711 15.0314 221.452 16.6867C219.192 18.3421 217.569 20.6602 216.834 23.2821C215.298 22.6873 213.656 22.3792 211.998 22.3746C208.55 22.3746 205.243 23.6784 202.805 25.9991C200.367 28.3198 198.997 31.4673 198.997 34.7493C198.997 36.2507 199.322 37.6697 199.834 39.002C197.217 39.3031 194.806 40.5048 193.055 42.3808C191.305 44.2567 190.336 46.6773 190.33 49.1864C190.33 50.4857 190.612 51.7149 191.071 52.8575C189.531 53.7742 188.258 55.0464 187.371 56.5562C186.485 58.066 186.013 59.7644 186 61.494C185.987 63.2236 186.433 64.9283 187.297 66.4499C188.161 67.9716 189.415 69.261 190.941 70.1985C190.54 71.4075 190.334 72.6676 190.33 73.9357C190.33 79.6321 194.209 84.2479 198.997 84.2479C200.414 84.2479 201.727 83.8065 202.91 83.0888C204.834 89.041 207.664 92.4234 207.664 84.2479C207.664 77.7099 207.721 73.7212 210.958 67.4142C216.11 69.0766 223.559 68.0701 230.601 64.2009C231.79 63.5435 232.937 62.8204 234.037 62.0354C235.676 67.6535 242.644 71.8732 250.999 71.8732C256.615 71.8732 261.559 69.9345 264.723 66.977C266.785 72.1702 273.398 75.9981 281.333 75.9981C285.995 75.9981 290.212 74.6699 293.323 72.5291C294.459 76.2992 294.502 79.6362 294.502 84.2479C294.502 93.9331 297.423 89.8495 299.351 83.2579C300.46 83.8766 301.691 84.2479 303 84.2479C307.788 84.2479 311.667 79.6321 311.667 73.9357C311.667 72.6116 311.437 71.3576 311.06 70.1985C312.575 69.2653 313.821 67.9862 314.683 66.4775C315.546 64.9689 315.999 63.2787 316 61.561Z" fill="#989898"/>
</g>
<g filter="url(#filter2_d_150_69)">
<path d="M471.597 90.4032C471.597 90.4032 467.362 47.2905 439.546 46.2069C411.721 45.12 376.643 40.6239 373.014 37.2116C368.983 43.417 365.557 53.1864 362.33 62.1783C359.102 71.1704 359.305 94.4346 359.305 94.4346C359.305 94.4346 347.609 60.937 348.01 49.1486C348.411 37.3665 356.278 23.717 370.389 20.9271C382.89 2.93647 442.167 -2.64629 465.752 22.943C489.342 48.5291 471.597 90.4032 471.597 90.4032Z" fill="#989898"/>
</g>
<defs>
<filter id="filter0_d_150_69" x="0" y="0" width="158" height="108" filterUnits="userSpaceOnUse" color-interpolation-filters="sRGB">
<feFlood flood-opacity="0" result="BackgroundImageFix"/>
<feColorMatrix in="SourceAlpha" type="matrix" values="0 0 0 0 0 0 0 0 0 0 0 0 0 0 0 0 0 0 127 0" result="hardAlpha"/>
<feOffset dy="4"/>
<feGaussianBlur stdDeviation="2"/>
<feComposite in2="hardAlpha" operator="out"/>
<feColorMatrix type="matrix" values="0 0 0 0 0 0 0 0 0 0 0 0 0 0 0 0 0 0 0.25 0"/>
<feBlend mode="normal" in2="BackgroundImageFix" result="effect1_dropShadow_150_69"/>
<feBlend mode="normal" in="SourceGraphic" in2="effect1_dropShadow_150_69" result="shape"/>
</filter>
<filter id="filter1_d_150_69" x="182" y="10" width="138" height="88" filterUnits="userSpaceOnUse" color-interpolation-filters="sRGB">
<feFlood flood-opacity="0" result="BackgroundImageFix"/>
<feColorMatrix in="SourceAlpha" type="matrix" values="0 0 0 0 0 0 0 0 0 0 0 0 0 0 0 0 0 0 127 0" result="hardAlpha"/>
<feOffset dy="4"/>
<feGaussianBlur stdDeviation="2"/>
<feComposite in2="hardAlpha" operator="out"/>
<feColorMatrix type="matrix" values="0 0 0 0 0 0 0 0 0 0 0 0 0 0 0 0 0 0 0.25 0"/>
<feBlend mode="normal" in2="BackgroundImageFix" result="effect1_dropShadow_150_69"/>
<feBlend mode="normal" in="SourceGraphic" in2="effect1_dropShadow_150_69" result="shape"/>
</filter>
<filter id="filter2_d_150_69" x="344" y="5.56537" width="138" height="96.8693" filterUnits="userSpaceOnUse" color-interpolation-filters="sRGB">
<feFlood flood-opacity="0" result="BackgroundImageFix"/>
<feColorMatrix in="SourceAlpha" type="matrix" values="0 0 0 0 0 0 0 0 0 0 0 0 0 0 0 0 0 0 127 0" result="hardAlpha"/>
<feOffset dy="4"/>
<feGaussianBlur stdDeviation="2"/>
<feComposite in2="hardAlpha" operator="out"/>
<feColorMatrix type="matrix" values="0 0 0 0 0 0 0 0 0 0 0 0 0 0 0 0 0 0 0.25 0"/>
<feBlend mode="normal" in2="BackgroundImageFix" result="effect1_dropShadow_150_69"/>
<feBlend mode="normal" in="SourceGraphic" in2="effect1_dropShadow_150_69" result="shape"/>
</filter>
</defs>
</svg>
