<svg width="140" height="87" viewBox="0 0 140 87" fill="none" xmlns="http://www.w3.org/2000/svg">
<path fill-rule="evenodd" clip-rule="evenodd" d="M48.5 9.0131C45.5 9.0131 40.4 13.1153 38 17.5153C35 23.0153 36.5 35.5154 38 39.5153C39.5 43.5153 35 73.5152 33.5 75.0153C33.2914 75.224 33.0634 75.6164 32.7623 76.1347C30.8983 79.3431 26.2315 87.3762 6 86.5153C5.2 86.5153 2 85.8487 0.5 85.5153L0 85.0153C4.16667 82.682 12.7 75.6153 13.5 66.0153C14.8333 60.3487 15 45.0154 15 42.5153C15 42.1662 14.9025 41.3092 14.762 40.0737C13.8961 32.4615 11.3963 10.4845 20 4.46189C30 -2.5381 47.5 -0.486897 57.5 5.0131L48.5 9.0131ZM91.5 9.0131C94.5 9.0131 99.6 13.1153 102 17.5153C105 23.0153 103.5 35.5154 102 39.5153C100.5 43.5153 105 73.5152 106.5 75.0153C106.709 75.224 106.937 75.6164 107.238 76.1347C109.102 79.3431 113.768 87.3762 134 86.5153C134.8 86.5153 138 85.8487 139.5 85.5153L140 85.0153C135.833 82.682 127.3 75.6153 126.5 66.0153C125.167 60.3487 125 45.0154 125 42.5153C125 42.1662 125.097 41.3092 125.238 40.0737C126.104 32.4615 128.604 10.4845 120 4.46189C110 -2.5381 92.5 -0.486897 82.5 5.0131L91.5 9.0131Z" fill="black"/>
</svg>
