<svg width="108" height="65" viewBox="0 0 108 65" fill="none" xmlns="http://www.w3.org/2000/svg">
<path d="M107.746 41.3067C107.745 39.9137 107.361 38.5439 106.631 37.3259C105.9 36.1079 104.847 35.0818 103.57 34.3439C103.948 33.4298 104.18 32.4465 104.18 31.407C104.175 29.3997 103.378 27.4632 101.937 25.9625C100.496 24.4617 98.5117 23.5004 96.3578 23.2595C96.7786 22.1937 97.0462 21.0585 97.0462 19.8573C97.0462 17.2318 95.9188 14.7137 93.9121 12.8572C91.9054 11.0006 89.1838 9.95761 86.3459 9.95761C84.937 9.95761 83.5995 10.2249 82.369 10.6836C81.7623 8.58604 80.4256 6.73182 78.5656 5.40763C76.7056 4.08345 74.4259 3.36304 72.0789 3.3578C68.9759 3.3578 66.2081 4.59856 64.2535 6.54881C62.7483 2.76711 58.8534 0.0578918 54.2452 0.0578918C49.6369 0.0578918 45.7421 2.76711 44.2369 6.54881C43.2422 5.54486 42.0331 4.74287 40.6861 4.1936C39.3391 3.64432 37.8835 3.35972 36.4114 3.3578C34.0648 3.36265 31.7853 4.08297 29.9258 5.40728C28.0663 6.73158 26.7304 8.58602 26.1249 10.6836C24.8607 10.2077 23.5093 9.96123 22.1444 9.95761C19.3066 9.95761 16.5849 11.0006 14.5782 12.8572C12.5715 14.7137 11.4442 17.2318 11.4442 19.8573C11.4442 21.0585 11.7117 22.1937 12.1326 23.2595C9.97868 23.5004 7.99435 24.4617 6.55358 25.9625C5.11279 27.4632 4.31506 29.3997 4.31071 31.407C4.31071 32.4465 4.54255 33.4298 4.92062 34.3439C3.65237 35.0773 2.60483 36.095 1.87515 37.3029C1.14547 38.5107 0.757297 39.8694 0.746625 41.2531C0.735953 42.6368 1.10313 44.0005 1.8141 45.2178C2.52507 46.4352 3.55681 47.4667 4.81362 48.2167C4.48281 49.1839 4.31323 50.192 4.31071 51.2064C4.31071 55.7636 7.50295 59.4562 11.4442 59.4562C12.6105 59.4562 13.6913 59.1031 14.665 58.5289C16.2486 63.2907 18.5777 65.9966 18.5777 59.4562C18.5777 54.2258 18.6241 51.0348 21.2884 45.9893C25.5293 47.3191 31.6605 46.514 37.4565 43.4186C38.435 42.8927 39.3795 42.3142 40.2849 41.6862C41.6332 46.1807 47.3685 49.5565 54.2452 49.5565C58.8677 49.5565 62.9373 48.0055 65.5411 45.6395C67.2388 49.7941 72.6817 52.8564 79.2124 52.8564C83.0502 52.8564 86.5207 51.7938 89.0816 50.0812C90.0161 53.0973 90.0518 55.7669 90.0518 59.4562C90.0518 67.2044 92.4558 63.9375 94.043 58.6642C94.956 59.1592 95.969 59.4562 97.0462 59.4562C100.987 59.4562 104.18 55.7636 104.18 51.2064C104.18 50.1472 103.991 49.144 103.68 48.2167C104.927 47.4702 105.953 46.4468 106.663 45.2399C107.373 44.033 107.745 42.6809 107.746 41.3067Z" fill="black"/>
</svg>
