<svg width="59" height="84" viewBox="0 0 59 84" fill="none" xmlns="http://www.w3.org/2000/svg">
<path fill-rule="evenodd" clip-rule="evenodd" d="M8.99998 9.00009C12 9.00009 18.6 10.1001 21 14.5001C24 20.0001 22.5 32.5001 21 36.5001C19.5 40.5 24 70.5 25.5 72.0001C25.7086 72.2087 25.9366 72.6012 26.2377 73.1195C28.1016 76.3279 32.7685 84.361 53 83.5001C53.8 83.5001 57 82.8334 58.5 82.5001L59 82.0001C54.8333 79.6668 46.3 72.6001 45.5 63.0001C44.1666 57.3334 44 42.0001 44 39.5001C44 37 43.5 11.0001 31.5 5.00009C19.5 -0.99996 14.5 8.85725e-05 4.49998 5.50009L8.99998 9.00009ZM1.98911 6.34938L7.5394 10.3139C8.04224 10.673 8.10222 11.3978 7.66527 11.8347L7.60662 11.8934C7.25761 12.2424 6.70617 12.2845 6.30815 11.9927L0.81843 7.96686C0.216156 7.5252 0.29433 6.60283 0.962343 6.26882C1.29311 6.10344 1.68819 6.13444 1.98911 6.34938Z" fill="black"/>
</svg>
