<svg width="224" height="95" viewBox="0 0 224 95" fill="none" xmlns="http://www.w3.org/2000/svg">
<g filter="url(#filter0_d_192_29)">
<rect x="4" width="216" height="87" rx="43.5" fill="#717273" fill-opacity="0.5"/>
<g clip-path="url(#clip0_192_29)">
<g filter="url(#filter1_d_192_29)">
<path d="M60.86 21.06C60.86 19.44 59.72 18.1 58.22 17.76C57.96 17.7 57.74 17.52 57.64 17.28C57.18 15.94 55.92 15 54.44 15C52.96 15 51.72 15.94 51.24 17.26C51.16 17.52 50.94 17.68 50.68 17.74C49.16 18.08 48.04 19.44 48.04 21.06C48.04 22.68 49.18 24.02 50.68 24.36C50.94 24.42 51.16 24.6 51.26 24.84C51.72 26.16 52.98 27.1 54.46 27.1C55.94 27.1 57.18 26.16 57.66 24.84C57.74 24.58 57.98 24.4 58.24 24.36C59.72 24.02 60.86 22.66 60.86 21.06Z" fill="#F9C23C"/>
</g>
<g filter="url(#filter2_d_192_29)">
<path d="M59.1236 21.5045C59.7398 20.989 60.5354 20.6799 61.4002 20.6799C62.9402 20.6799 64.2602 21.6599 64.7402 23.0399C64.8402 23.3199 65.0602 23.4999 65.3402 23.5599C66.9402 23.9199 68.1202 25.3199 68.1202 27.0199C68.1202 28.7199 66.9402 30.1199 65.3402 30.4799C65.0602 30.5399 64.8402 30.7399 64.7402 30.9999C64.2602 32.38 62.9402 33.36 61.4002 33.36C60.1382 33.36 59.024 32.7018 58.3986 31.7048C57.8542 32.0806 57.1952 32.3 56.48 32.3C55 32.3 53.74 31.36 53.28 30.04C53.18 29.8 52.96 29.62 52.7 29.56C52.5146 29.5179 52.3346 29.4606 52.1616 29.3893C51.6722 29.9259 51.0188 30.3137 50.2802 30.4799C50.0002 30.5399 49.7802 30.7399 49.6802 30.9999C49.2002 32.38 47.8802 33.36 46.3402 33.36C44.8002 33.36 43.4802 32.38 43.0002 30.9999C42.9202 30.7199 42.6802 30.5399 42.4002 30.4799C40.8201 30.1199 39.6401 28.7199 39.6401 27.0199C39.6401 25.3199 40.8201 23.9199 42.4002 23.5599C42.6802 23.4999 42.9202 23.3199 43.0002 23.0399C43.5002 21.6599 44.8002 20.6799 46.3602 20.6799C47.9002 20.6799 49.2202 21.6599 49.7002 23.0399C49.8002 23.3199 50.0202 23.4999 50.3002 23.5599C50.5754 23.6219 50.8382 23.7146 51.0848 23.8343C51.5224 23.4076 52.0726 23.0995 52.68 22.96C52.94 22.92 53.18 22.74 53.26 22.48C53.74 21.16 54.98 20.22 56.46 20.22C57.5402 20.22 58.5032 20.7207 59.1236 21.5045Z" fill="#FCD53F"/>
</g>
<g filter="url(#filter3_d_192_29)">
<path d="M60.0598 27.8401C61.369 27.8401 62.5192 28.5484 63.1296 29.6086C63.7708 28.7055 64.8296 28.1201 66.0198 28.1201C67.5598 28.1201 68.8798 29.1001 69.3598 30.4801C69.4598 30.7601 69.6798 30.9401 69.9598 31.0002C71.5598 31.3602 72.7398 32.7602 72.7398 34.4602C72.7398 36.1402 71.5598 37.5602 69.9598 37.9202C69.6798 37.9802 69.4598 38.1802 69.3598 38.4402C68.8798 39.8202 67.5598 40.8002 66.0198 40.8002C64.7106 40.8002 63.5604 40.0918 62.9502 39.0316C62.309 39.9346 61.2502 40.52 60.0598 40.52C58.5822 40.52 57.3072 39.6178 56.7822 38.3258C56.3806 38.5378 55.9336 38.6756 55.46 38.72C53.94 38.86 52.58 38.04 51.96 36.78C51.32 38.04 49.98 38.86 48.46 38.72C47.6284 38.6408 46.875 38.2724 46.307 37.7168C46.107 37.8028 45.8974 37.8712 45.68 37.9202C45.4 37.9802 45.18 38.1802 45.08 38.4402C44.6 39.8202 43.28 40.8002 41.74 40.8002C40.2 40.8002 38.88 39.8202 38.4 38.4402C38.3 38.1602 38.08 37.9802 37.8 37.9202C36.2 37.5602 35.02 36.1602 35.02 34.4602C35.02 32.7602 36.22 31.3402 37.8 31.0002C38.08 30.9401 38.3 30.7401 38.4 30.4801C38.88 29.1001 40.2 28.1201 41.74 28.1201C43.3 28.1201 44.6 29.1001 45.08 30.4801C45.18 30.7601 45.4 30.9401 45.68 31.0002C46.3482 31.1504 46.9432 31.4822 47.4094 31.9414C47.498 31.9042 47.5882 31.8704 47.68 31.84C48.06 31.72 48.36 31.42 48.5 31.04C48.96 29.6001 50.28 28.5801 51.86 28.5801C53.42 28.5801 54.74 29.5801 55.22 30.9801C55.2268 31.0022 55.234 31.024 55.242 31.0454C55.516 30.9008 55.8106 30.7905 56.1198 30.7201C56.3998 30.6601 56.6198 30.4601 56.7198 30.2001C57.1998 28.8201 58.5198 27.8401 60.0598 27.8401Z" fill="#FFF478"/>
</g>
<g filter="url(#filter4_d_192_29)">
<path d="M48.4802 39.26C48.3602 36.48 50.6002 34.16 53.3802 34.16C56.1602 34.16 58.3802 36.48 58.2802 39.26L65.7802 38.18C65.9602 36.08 67.7002 34.46 69.8202 34.46C72.3002 34.46 74.2002 36.68 73.8002 39.14L69.1402 68.64C68.9202 70.02 67.7202 71.04 66.3202 71.04H63.1802L60.3654 62.6086L57.0402 71.02H49.7202L47.1478 64.4122L43.6602 71.04H40.5202C39.1202 71.04 37.9202 70.02 37.7002 68.64L33.0402 39.14C32.6602 36.68 34.5602 34.46 37.0402 34.46C39.1602 34.46 40.9202 36.08 41.0602 38.18L48.4802 39.26Z" fill="#F8312F"/>
</g>
<g filter="url(#filter5_d_192_29)">
<path d="M43.5602 71.04L40.9802 38.48C40.8002 36.3 42.5202 34.46 44.6802 34.46C46.6802 34.46 48.3202 36.04 48.4002 38.04L49.7202 71.04H43.5602Z" fill="#F4F4F4"/>
<path d="M57.04 71.04L58.34 38.04C58.42 36.04 60.06 34.46 62.06 34.46C64.24 34.46 65.96 36.32 65.78 38.48L63.2 71.04H57.04Z" fill="#F4F4F4"/>
</g>
</g>
<g filter="url(#filter6_d_192_29)">
<path d="M93.06 38.1C92.3 38.1 91.6133 38.2333 91 38.5C90.3867 38.7533 89.8667 39.1333 89.44 39.64C89.0133 40.1333 88.6867 40.74 88.46 41.46C88.2333 42.1667 88.12 42.9667 88.12 43.86C88.12 45.0333 88.3 46.0533 88.66 46.92C89.0333 47.7867 89.58 48.4533 90.3 48.92C91.0333 49.3867 91.9467 49.62 93.04 49.62C93.6667 49.62 94.26 49.5667 94.82 49.46C95.38 49.3533 95.9267 49.22 96.46 49.06V50.62C95.9267 50.82 95.3733 50.9667 94.8 51.06C94.24 51.1533 93.5667 51.2 92.78 51.2C91.3267 51.2 90.1133 50.9 89.14 50.3C88.1667 49.7 87.4333 48.8467 86.94 47.74C86.46 46.6333 86.22 45.3333 86.22 43.84C86.22 42.76 86.3667 41.7733 86.66 40.88C86.9667 39.9867 87.4067 39.2133 87.98 38.56C88.5667 37.9067 89.2867 37.4067 90.14 37.06C90.9933 36.7 91.9733 36.52 93.08 36.52C93.8133 36.52 94.52 36.5933 95.2 36.74C95.88 36.8867 96.4867 37.0933 97.02 37.36L96.3 38.88C95.86 38.68 95.3667 38.5 94.82 38.34C94.2867 38.18 93.7 38.1 93.06 38.1ZM101.097 40.28V51H99.3367V40.28H101.097ZM100.237 36.26C100.503 36.26 100.737 36.3533 100.937 36.54C101.15 36.7133 101.257 36.9933 101.257 37.38C101.257 37.7533 101.15 38.0333 100.937 38.22C100.737 38.4067 100.503 38.5 100.237 38.5C99.9434 38.5 99.6967 38.4067 99.4967 38.22C99.2967 38.0333 99.1967 37.7533 99.1967 37.38C99.1967 36.9933 99.2967 36.7133 99.4967 36.54C99.6967 36.3533 99.9434 36.26 100.237 36.26ZM109.653 40.08C110.933 40.08 111.9 40.3933 112.553 41.02C113.206 41.6333 113.533 42.6333 113.533 44.02V51H111.793V44.14C111.793 43.2733 111.6 42.6267 111.213 42.2C110.826 41.7733 110.22 41.56 109.393 41.56C108.206 41.56 107.386 41.8933 106.933 42.56C106.48 43.2267 106.253 44.1867 106.253 45.44V51H104.493V40.28H105.913L106.173 41.74H106.273C106.513 41.3667 106.806 41.06 107.153 40.82C107.513 40.5667 107.906 40.38 108.333 40.26C108.76 40.14 109.2 40.08 109.653 40.08ZM120.996 40.08C121.916 40.08 122.703 40.28 123.356 40.68C124.023 41.08 124.53 41.6467 124.876 42.38C125.236 43.1 125.416 43.9467 125.416 44.92V45.98H118.076C118.103 47.1933 118.41 48.12 118.996 48.76C119.596 49.3867 120.43 49.7 121.496 49.7C122.176 49.7 122.776 49.64 123.296 49.52C123.83 49.3867 124.376 49.2 124.936 48.96V50.5C124.39 50.74 123.85 50.9133 123.316 51.02C122.783 51.14 122.15 51.2 121.416 51.2C120.403 51.2 119.503 50.9933 118.716 50.58C117.943 50.1667 117.336 49.5533 116.896 48.74C116.47 47.9133 116.256 46.9067 116.256 45.72C116.256 44.5467 116.45 43.54 116.836 42.7C117.236 41.86 117.79 41.2133 118.496 40.76C119.216 40.3067 120.05 40.08 120.996 40.08ZM120.976 41.52C120.136 41.52 119.47 41.7933 118.976 42.34C118.496 42.8733 118.21 43.62 118.116 44.58H123.576C123.576 43.9667 123.483 43.4333 123.296 42.98C123.11 42.5267 122.823 42.1733 122.436 41.92C122.063 41.6533 121.576 41.52 120.976 41.52ZM139.905 40.08C141.119 40.08 142.025 40.3933 142.625 41.02C143.225 41.6333 143.525 42.6333 143.525 44.02V51H141.785V44.1C141.785 43.26 141.605 42.6267 141.245 42.2C140.899 41.7733 140.352 41.56 139.605 41.56C138.565 41.56 137.819 41.86 137.365 42.46C136.925 43.06 136.705 43.9333 136.705 45.08V51H134.965V44.1C134.965 43.54 134.885 43.0733 134.725 42.7C134.565 42.3133 134.325 42.0267 134.005 41.84C133.685 41.6533 133.272 41.56 132.765 41.56C132.045 41.56 131.479 41.7133 131.065 42.02C130.652 42.3133 130.352 42.7467 130.165 43.32C129.992 43.8933 129.905 44.6 129.905 45.44V51H128.145V40.28H129.565L129.825 41.74H129.925C130.152 41.3667 130.425 41.06 130.745 40.82C131.079 40.5667 131.445 40.38 131.845 40.26C132.245 40.14 132.659 40.08 133.085 40.08C133.912 40.08 134.599 40.2267 135.145 40.52C135.705 40.8133 136.112 41.2667 136.365 41.88H136.465C136.825 41.2667 137.312 40.8133 137.925 40.52C138.552 40.2267 139.212 40.08 139.905 40.08ZM150.897 40.1C152.203 40.1 153.17 40.3867 153.797 40.96C154.423 41.5333 154.737 42.4467 154.737 43.7V51H153.457L153.117 49.48H153.037C152.73 49.8667 152.41 50.1933 152.077 50.46C151.757 50.7133 151.383 50.9 150.957 51.02C150.543 51.14 150.037 51.2 149.437 51.2C148.797 51.2 148.217 51.0867 147.697 50.86C147.19 50.6333 146.79 50.2867 146.497 49.82C146.203 49.34 146.057 48.74 146.057 48.02C146.057 46.9533 146.477 46.1333 147.317 45.56C148.157 44.9733 149.45 44.6533 151.197 44.6L153.017 44.54V43.9C153.017 43.0067 152.823 42.3867 152.437 42.04C152.05 41.6933 151.503 41.52 150.797 41.52C150.237 41.52 149.703 41.6067 149.197 41.78C148.69 41.94 148.217 42.1267 147.777 42.34L147.237 41.02C147.703 40.7667 148.257 40.5533 148.897 40.38C149.537 40.1933 150.203 40.1 150.897 40.1ZM151.417 45.82C150.083 45.8733 149.157 46.0867 148.637 46.46C148.13 46.8333 147.877 47.36 147.877 48.04C147.877 48.64 148.057 49.08 148.417 49.36C148.79 49.64 149.263 49.78 149.837 49.78C150.743 49.78 151.497 49.5333 152.097 49.04C152.697 48.5333 152.997 47.76 152.997 46.72V45.76L151.417 45.82ZM164.408 38.1C163.648 38.1 162.961 38.2333 162.348 38.5C161.734 38.7533 161.214 39.1333 160.788 39.64C160.361 40.1333 160.034 40.74 159.808 41.46C159.581 42.1667 159.468 42.9667 159.468 43.86C159.468 45.0333 159.648 46.0533 160.008 46.92C160.381 47.7867 160.928 48.4533 161.648 48.92C162.381 49.3867 163.294 49.62 164.388 49.62C165.014 49.62 165.608 49.5667 166.168 49.46C166.728 49.3533 167.274 49.22 167.808 49.06V50.62C167.274 50.82 166.721 50.9667 166.148 51.06C165.588 51.1533 164.914 51.2 164.128 51.2C162.674 51.2 161.461 50.9 160.488 50.3C159.514 49.7 158.781 48.8467 158.288 47.74C157.808 46.6333 157.568 45.3333 157.568 43.84C157.568 42.76 157.714 41.7733 158.008 40.88C158.314 39.9867 158.754 39.2133 159.328 38.56C159.914 37.9067 160.634 37.4067 161.488 37.06C162.341 36.7 163.321 36.52 164.428 36.52C165.161 36.52 165.868 36.5933 166.548 36.74C167.228 36.8867 167.834 37.0933 168.368 37.36L167.648 38.88C167.208 38.68 166.714 38.5 166.168 38.34C165.634 38.18 165.048 38.1 164.408 38.1ZM180.004 45.62C180.004 46.5133 179.884 47.3067 179.644 48C179.418 48.68 179.084 49.26 178.644 49.74C178.218 50.22 177.691 50.5867 177.064 50.84C176.451 51.08 175.764 51.2 175.004 51.2C174.298 51.2 173.644 51.08 173.044 50.84C172.444 50.5867 171.924 50.22 171.484 49.74C171.044 49.26 170.698 48.68 170.444 48C170.204 47.3067 170.084 46.5133 170.084 45.62C170.084 44.4333 170.284 43.4333 170.684 42.62C171.084 41.7933 171.658 41.1667 172.404 40.74C173.151 40.3 174.038 40.08 175.064 40.08C176.038 40.08 176.891 40.3 177.624 40.74C178.371 41.1667 178.951 41.7933 179.364 42.62C179.791 43.4333 180.004 44.4333 180.004 45.62ZM171.904 45.62C171.904 46.46 172.011 47.1933 172.224 47.82C172.451 48.4333 172.798 48.9067 173.264 49.24C173.731 49.5733 174.324 49.74 175.044 49.74C175.764 49.74 176.358 49.5733 176.824 49.24C177.291 48.9067 177.631 48.4333 177.844 47.82C178.071 47.1933 178.184 46.46 178.184 45.62C178.184 44.7667 178.071 44.04 177.844 43.44C177.618 42.84 177.271 42.38 176.804 42.06C176.351 41.7267 175.758 41.56 175.024 41.56C173.931 41.56 173.138 41.92 172.644 42.64C172.151 43.36 171.904 44.3533 171.904 45.62ZM187.794 40.08C187.994 40.08 188.207 40.0933 188.434 40.12C188.674 40.1333 188.88 40.16 189.054 40.2L188.834 41.82C188.66 41.78 188.467 41.7467 188.254 41.72C188.054 41.6933 187.86 41.68 187.674 41.68C187.26 41.68 186.867 41.7667 186.494 41.94C186.12 42.1133 185.787 42.36 185.494 42.68C185.2 42.9867 184.967 43.36 184.794 43.8C184.634 44.24 184.554 44.7333 184.554 45.28V51H182.794V40.28H184.234L184.434 42.24H184.514C184.74 41.84 185.014 41.48 185.334 41.16C185.654 40.8267 186.02 40.5667 186.434 40.38C186.847 40.18 187.3 40.08 187.794 40.08ZM196.215 40.08C197.495 40.08 198.462 40.3933 199.115 41.02C199.769 41.6333 200.095 42.6333 200.095 44.02V51H198.355V44.14C198.355 43.2733 198.162 42.6267 197.775 42.2C197.389 41.7733 196.782 41.56 195.955 41.56C194.769 41.56 193.949 41.8933 193.495 42.56C193.042 43.2267 192.815 44.1867 192.815 45.44V51H191.055V40.28H192.475L192.735 41.74H192.835C193.075 41.3667 193.369 41.06 193.715 40.82C194.075 40.5667 194.469 40.38 194.895 40.26C195.322 40.14 195.762 40.08 196.215 40.08Z" fill="white"/>
</g>
</g>
<defs>
<filter id="filter0_d_192_29" x="0" y="0" width="224" height="95" filterUnits="userSpaceOnUse" color-interpolation-filters="sRGB">
<feFlood flood-opacity="0" result="BackgroundImageFix"/>
<feColorMatrix in="SourceAlpha" type="matrix" values="0 0 0 0 0 0 0 0 0 0 0 0 0 0 0 0 0 0 127 0" result="hardAlpha"/>
<feOffset dy="4"/>
<feGaussianBlur stdDeviation="2"/>
<feComposite in2="hardAlpha" operator="out"/>
<feColorMatrix type="matrix" values="0 0 0 0 0 0 0 0 0 0 0 0 0 0 0 0 0 0 0.25 0"/>
<feBlend mode="normal" in2="BackgroundImageFix" result="effect1_dropShadow_192_29"/>
<feBlend mode="normal" in="SourceGraphic" in2="effect1_dropShadow_192_29" result="shape"/>
</filter>
<filter id="filter1_d_192_29" x="44.04" y="15" width="20.82" height="20.1" filterUnits="userSpaceOnUse" color-interpolation-filters="sRGB">
<feFlood flood-opacity="0" result="BackgroundImageFix"/>
<feColorMatrix in="SourceAlpha" type="matrix" values="0 0 0 0 0 0 0 0 0 0 0 0 0 0 0 0 0 0 127 0" result="hardAlpha"/>
<feOffset dy="4"/>
<feGaussianBlur stdDeviation="2"/>
<feComposite in2="hardAlpha" operator="out"/>
<feColorMatrix type="matrix" values="0 0 0 0 0 0 0 0 0 0 0 0 0 0 0 0 0 0 0.25 0"/>
<feBlend mode="normal" in2="BackgroundImageFix" result="effect1_dropShadow_192_29"/>
<feBlend mode="normal" in="SourceGraphic" in2="effect1_dropShadow_192_29" result="shape"/>
</filter>
<filter id="filter2_d_192_29" x="35.6401" y="20.22" width="36.48" height="21.14" filterUnits="userSpaceOnUse" color-interpolation-filters="sRGB">
<feFlood flood-opacity="0" result="BackgroundImageFix"/>
<feColorMatrix in="SourceAlpha" type="matrix" values="0 0 0 0 0 0 0 0 0 0 0 0 0 0 0 0 0 0 127 0" result="hardAlpha"/>
<feOffset dy="4"/>
<feGaussianBlur stdDeviation="2"/>
<feComposite in2="hardAlpha" operator="out"/>
<feColorMatrix type="matrix" values="0 0 0 0 0 0 0 0 0 0 0 0 0 0 0 0 0 0 0.25 0"/>
<feBlend mode="normal" in2="BackgroundImageFix" result="effect1_dropShadow_192_29"/>
<feBlend mode="normal" in="SourceGraphic" in2="effect1_dropShadow_192_29" result="shape"/>
</filter>
<filter id="filter3_d_192_29" x="31.02" y="27.8401" width="45.7198" height="20.9601" filterUnits="userSpaceOnUse" color-interpolation-filters="sRGB">
<feFlood flood-opacity="0" result="BackgroundImageFix"/>
<feColorMatrix in="SourceAlpha" type="matrix" values="0 0 0 0 0 0 0 0 0 0 0 0 0 0 0 0 0 0 127 0" result="hardAlpha"/>
<feOffset dy="4"/>
<feGaussianBlur stdDeviation="2"/>
<feComposite in2="hardAlpha" operator="out"/>
<feColorMatrix type="matrix" values="0 0 0 0 0 0 0 0 0 0 0 0 0 0 0 0 0 0 0.25 0"/>
<feBlend mode="normal" in2="BackgroundImageFix" result="effect1_dropShadow_192_29"/>
<feBlend mode="normal" in="SourceGraphic" in2="effect1_dropShadow_192_29" result="shape"/>
</filter>
<filter id="filter4_d_192_29" x="28.9917" y="34.16" width="48.8619" height="44.88" filterUnits="userSpaceOnUse" color-interpolation-filters="sRGB">
<feFlood flood-opacity="0" result="BackgroundImageFix"/>
<feColorMatrix in="SourceAlpha" type="matrix" values="0 0 0 0 0 0 0 0 0 0 0 0 0 0 0 0 0 0 127 0" result="hardAlpha"/>
<feOffset dy="4"/>
<feGaussianBlur stdDeviation="2"/>
<feComposite in2="hardAlpha" operator="out"/>
<feColorMatrix type="matrix" values="0 0 0 0 0 0 0 0 0 0 0 0 0 0 0 0 0 0 0.25 0"/>
<feBlend mode="normal" in2="BackgroundImageFix" result="effect1_dropShadow_192_29"/>
<feBlend mode="normal" in="SourceGraphic" in2="effect1_dropShadow_192_29" result="shape"/>
</filter>
<filter id="filter5_d_192_29" x="36.9673" y="34.46" width="32.8256" height="44.58" filterUnits="userSpaceOnUse" color-interpolation-filters="sRGB">
<feFlood flood-opacity="0" result="BackgroundImageFix"/>
<feColorMatrix in="SourceAlpha" type="matrix" values="0 0 0 0 0 0 0 0 0 0 0 0 0 0 0 0 0 0 127 0" result="hardAlpha"/>
<feOffset dy="4"/>
<feGaussianBlur stdDeviation="2"/>
<feComposite in2="hardAlpha" operator="out"/>
<feColorMatrix type="matrix" values="0 0 0 0 0 0 0 0 0 0 0 0 0 0 0 0 0 0 0.25 0"/>
<feBlend mode="normal" in2="BackgroundImageFix" result="effect1_dropShadow_192_29"/>
<feBlend mode="normal" in="SourceGraphic" in2="effect1_dropShadow_192_29" result="shape"/>
</filter>
<filter id="filter6_d_192_29" x="82.22" y="36.26" width="121.875" height="22.94" filterUnits="userSpaceOnUse" color-interpolation-filters="sRGB">
<feFlood flood-opacity="0" result="BackgroundImageFix"/>
<feColorMatrix in="SourceAlpha" type="matrix" values="0 0 0 0 0 0 0 0 0 0 0 0 0 0 0 0 0 0 127 0" result="hardAlpha"/>
<feOffset dy="4"/>
<feGaussianBlur stdDeviation="2"/>
<feComposite in2="hardAlpha" operator="out"/>
<feColorMatrix type="matrix" values="0 0 0 0 0 0 0 0 0 0 0 0 0 0 0 0 0 0 0.25 0"/>
<feBlend mode="normal" in2="BackgroundImageFix" result="effect1_dropShadow_192_29"/>
<feBlend mode="normal" in="SourceGraphic" in2="effect1_dropShadow_192_29" result="shape"/>
</filter>
<clipPath id="clip0_192_29">
<rect x="21" y="11" width="64" height="64" rx="32" fill="white"/>
</clipPath>
</defs>
</svg>
