<svg width="100" height="95" viewBox="0 0 100 95" fill="none" xmlns="http://www.w3.org/2000/svg">
<g filter="url(#filter0_d_192_34)">
<rect x="4" width="92" height="87" rx="43.5" fill="#334D5C"/>
<path d="M38.7338 18.8714C37.1301 20.5449 37.2743 23.0307 39.0401 24.3955C39.7609 24.9479 40.6258 25.2403 41.5087 25.2891C41.7429 25.7602 42.1033 26.1827 42.5538 26.5401C44.3196 27.9211 47.0585 27.6774 48.6622 26.0039C49.419 25.2078 49.7974 24.2167 49.7793 23.2582C50.1758 23.0307 50.5542 22.7545 50.8965 22.4133C52.5002 20.7398 52.356 18.254 50.5902 16.8892C48.8243 15.5244 46.0855 15.7519 44.4818 17.4254C44.3377 17.5716 44.2295 17.7178 44.1034 17.8641C42.3736 17.0354 40.1212 17.4091 38.7338 18.8714Z" fill="#E2BA13"/>
<path d="M52.9146 17.0029C50.9686 17.1167 49.491 18.5627 49.5991 20.2362C49.6532 20.9023 49.9415 21.5197 50.41 21.9909C50.2478 22.3808 50.1757 22.787 50.1938 23.2257C50.3019 24.8991 51.9776 26.1664 53.9237 26.0527C54.8606 26.0039 55.6715 25.6465 56.2661 25.1103C56.6265 25.1916 57.0229 25.2241 57.4193 25.2078C59.3654 25.0941 60.8429 23.6481 60.7348 21.9746C60.6267 20.3011 58.9509 19.0339 57.0049 19.1476C56.8427 19.1638 56.6805 19.1801 56.5184 19.2126C56.0859 17.8478 54.6084 16.9055 52.9146 17.0029Z" fill="#EDC92F"/>
<path d="M36.2652 27.255C36.2652 25.5003 34.7516 24.0705 32.8957 24.0705C32.1389 24.0705 31.4541 24.298 30.8956 24.6879C30.4811 24.5092 30.0307 24.428 29.5441 24.428C27.6882 24.428 26.1746 25.8577 26.1746 27.6124C26.1746 28.4573 26.517 29.2209 27.0756 29.7896C26.9675 30.1145 26.8954 30.4557 26.8954 30.8131C26.8954 32.5678 28.409 33.9976 30.2649 33.9976C32.1208 33.9976 33.6344 32.5678 33.6344 30.8131C33.6344 30.6669 33.6164 30.5207 33.5984 30.3745C35.13 30.0495 36.2652 28.7822 36.2652 27.255Z" fill="#EFD35B"/>
<path d="M40.0491 28.9285C41.9951 28.831 43.4907 27.385 43.3826 25.7115C43.3465 25.0291 43.0402 24.428 42.5717 23.9405C42.7339 23.5506 42.824 23.1444 42.7879 22.7057C42.6798 21.0323 41.0221 19.765 39.076 19.8625C38.1391 19.9112 37.3282 20.2687 36.7336 20.8048C36.3732 20.7236 35.9768 20.6748 35.5804 20.7073C33.6344 20.8048 32.1388 22.2508 32.2469 23.9243C32.355 25.5978 34.0128 26.865 35.9588 26.7676C36.121 26.7513 36.2831 26.7351 36.4453 26.7188C36.8777 28.0511 38.3553 29.0097 40.0491 28.9285Z" fill="#F9E595"/>
<path d="M69.6 32.4704C71.5461 32.3729 73.0416 30.9269 72.9335 29.2534C72.8975 28.571 72.5912 27.9699 72.1227 27.4824C72.2848 27.0925 72.3749 26.6863 72.3389 26.2476C72.2308 24.5742 70.573 23.3069 68.627 23.4044C67.69 23.4531 66.8792 23.8106 66.2846 24.3467C65.9242 24.2655 65.5278 24.2167 65.1314 24.2492C63.1853 24.3467 61.6898 25.7927 61.7979 27.4662C61.906 29.1397 63.5637 30.407 65.5098 30.3095C65.6719 30.2932 65.8341 30.277 65.9963 30.2607C66.4287 31.6093 67.9063 32.5678 69.6 32.4704Z" fill="#EFD35B"/>
<path d="M41.5807 31.8855C43.5268 31.788 45.0223 30.342 44.9142 28.6685C44.8782 27.9861 44.5719 27.385 44.1034 26.8975C44.2656 26.5076 44.3556 26.1014 44.3196 25.6628C44.2115 23.9893 42.5538 22.722 40.6077 22.8195C39.6707 22.8682 38.8599 23.2257 38.2653 23.7618C37.9049 23.6806 37.5085 23.6318 37.1121 23.6643C35.166 23.7618 33.6705 25.2078 33.7786 26.8813C33.8867 28.5548 35.5444 29.8221 37.4905 29.7246C37.6526 29.7083 37.8148 29.6921 37.977 29.6758C38.4094 31.0244 39.887 31.9667 41.5807 31.8855Z" fill="#EFD35B"/>
<path d="M49.6712 28.3273C51.6172 28.2298 53.1128 26.7838 53.0047 25.1103C52.9686 24.4442 52.6623 23.8268 52.1938 23.3394C52.356 22.9494 52.4461 22.5433 52.4101 22.1046C52.3019 20.4311 50.6442 19.1638 48.6982 19.2613C47.7612 19.3101 46.9504 19.6675 46.3557 20.2037C45.9954 20.1224 45.5989 20.0737 45.2025 20.1062C43.2565 20.2037 41.7609 21.6497 41.869 23.3231C41.9771 24.9966 43.6349 26.2639 45.5809 26.1664C45.7431 26.1502 45.9053 26.1339 46.0674 26.1177C46.4999 27.4662 47.9774 28.4248 49.6712 28.3273Z" fill="#EFD35B"/>
<path d="M66.7531 26.5401C67.8522 25.0941 67.5099 23.1444 65.9963 22.2021C65.3836 21.8121 64.6629 21.6497 63.9601 21.6984C63.7259 21.341 63.4196 21.0323 63.0232 20.7886C61.4916 19.83 59.3473 20.2362 58.2482 21.6822C57.7256 22.3646 57.5274 23.1769 57.6355 23.9243C57.3292 24.1355 57.0589 24.3792 56.8427 24.6717C55.7436 26.1177 56.0859 28.0673 57.6175 29.0097C59.1491 29.9683 61.2934 29.5621 62.3925 28.1161C62.4826 27.9861 62.5727 27.8724 62.6448 27.7424C64.0502 28.2623 65.7981 27.8074 66.7531 26.5401Z" fill="#EFD35B"/>
<path d="M51.3109 27.255C51.5451 25.5165 50.2298 23.9405 48.3918 23.7293C47.6531 23.6481 46.9323 23.8106 46.3197 24.1355C45.9233 23.9243 45.4908 23.7781 45.0223 23.7293C43.1844 23.5344 41.4906 24.7854 41.2564 26.5239C41.1483 27.3525 41.3825 28.1486 41.869 28.7822C41.7069 29.0909 41.5987 29.4321 41.5447 29.7896C41.3104 31.528 42.6258 33.104 44.4637 33.3152C46.3017 33.5102 47.9954 32.2591 48.2297 30.5207C48.2477 30.3745 48.2657 30.2282 48.2477 30.082C49.7973 29.9195 51.1127 28.7822 51.3109 27.255Z" fill="#EFD35B"/>
<path d="M46.4278 29.8058C46.1935 31.788 47.7071 33.5427 49.7973 33.7539C50.6442 33.8351 51.455 33.6564 52.1217 33.2665C52.5722 33.5102 53.0587 33.6564 53.5993 33.7214C55.6895 33.9164 57.5634 32.4866 57.7977 30.5044C57.9058 29.5621 57.6175 28.6685 57.0769 27.9699C57.2571 27.6124 57.3652 27.2387 57.4193 26.8326C57.6535 24.8504 56.1399 23.0957 54.0678 22.8845C51.9776 22.6895 50.1036 24.1193 49.8694 26.1014C49.8514 26.2639 49.8514 26.4426 49.8514 26.6051C48.0855 26.7676 46.626 28.0836 46.4278 29.8058Z" fill="#F9E595"/>
<path d="M64.2845 29.8708C65.4197 28.441 65.0954 26.4914 63.5818 25.5165C62.9691 25.1266 62.2664 24.9479 61.5457 24.9804C61.3114 24.6229 61.0051 24.3142 60.6087 24.0543C59.0951 23.0794 56.9509 23.4694 55.8157 24.8991C55.2751 25.5815 55.0769 26.3776 55.167 27.1412C54.8607 27.3362 54.5904 27.5962 54.3561 27.8886C53.239 29.3184 53.5453 31.2681 55.0589 32.2429C56.5725 33.2177 58.7167 32.8278 59.8519 31.398C59.942 31.2681 60.0321 31.1543 60.1041 31.0244C61.5457 31.5605 63.2935 31.1056 64.2845 29.8708Z" fill="#EFD35B"/>
<path d="M73.8345 26.9788C73.7083 26.865 73.5281 26.8163 73.3479 26.8488L70.6091 25.7602L67.5639 27.9536L64.1223 26.995L61.4555 29.1234L58.3563 28.0998L55.5814 30.2445L52.6983 29.1884L49.491 31.4143L46.0134 29.1397L43.4186 30.2607L40.1752 28.0186L37.4184 29.1072L34.3912 26.9138L31.4541 27.9699L28.5531 25.7927L25.6521 26.8488C25.4719 26.8163 25.2917 26.865 25.1655 26.9788C25.0394 27.0925 24.9854 27.255 25.0034 27.4175L32.319 67.0121C32.3551 67.1908 32.4992 67.337 32.6974 67.402L49.3468 71.9838C49.3468 71.9838 49.3468 71.9838 49.3649 71.9838H49.3829C49.4009 71.9838 49.4189 72 49.4369 72C49.455 72 49.473 72 49.491 72H49.509H49.527C49.545 72 49.5631 72 49.5811 72C49.5991 72 49.6171 72 49.6351 71.9838H49.6532C49.6532 71.9838 49.6532 71.9838 49.6712 71.9838L66.3206 67.402C66.5188 67.3533 66.663 67.1908 66.699 67.0121L73.9966 27.4012C74.0146 27.255 73.9606 27.0925 73.8345 26.9788Z" fill="#E5DDD7"/>
<path d="M26.8594 27.5799L33.7606 67.1746L36.4094 67.9057L30.6614 28.3111L28.7153 26.5726L26.8594 27.5799Z" fill="#EA4949"/>
<path d="M32.6794 28.701L37.8148 68.2956L40.4456 69.0105L36.4814 29.4321L34.6795 27.7099L32.6794 28.701Z" fill="#EA4949"/>
<path d="M38.4996 29.8058L41.8511 69.4004L44.4998 70.1316L42.3015 30.5369L40.1573 28.766L38.4996 29.8058Z" fill="#EA4949"/>
<path d="M44.3196 30.9269L45.9053 70.5215L48.5361 71.2364L48.1216 31.658L46.1035 29.9033L44.3196 30.9269Z" fill="#EA4949"/>
<path d="M51.0406 31.6255L50.5721 71.2039L53.2209 70.4728L54.8425 30.8944L52.6983 29.9358L51.0406 31.6255Z" fill="#BF1717"/>
<path d="M56.8606 30.5044L54.6083 70.0991L57.257 69.3679L60.6626 29.7733L58.5724 28.8147L56.8606 30.5044Z" fill="#BF1717"/>
<path d="M62.6807 29.3834L58.6625 68.978L61.3113 68.2469L66.4827 28.6685L64.4105 27.6937L62.6807 29.3834Z" fill="#BF1717"/>
<path d="M68.5009 28.2786L62.6988 67.8732L65.3476 67.1421L72.3028 27.5474L70.1586 26.5889L68.5009 28.2786Z" fill="#BF1717"/>
</g>
<defs>
<filter id="filter0_d_192_34" x="0" y="0" width="100" height="95" filterUnits="userSpaceOnUse" color-interpolation-filters="sRGB">
<feFlood flood-opacity="0" result="BackgroundImageFix"/>
<feColorMatrix in="SourceAlpha" type="matrix" values="0 0 0 0 0 0 0 0 0 0 0 0 0 0 0 0 0 0 127 0" result="hardAlpha"/>
<feOffset dy="4"/>
<feGaussianBlur stdDeviation="2"/>
<feComposite in2="hardAlpha" operator="out"/>
<feColorMatrix type="matrix" values="0 0 0 0 0 0 0 0 0 0 0 0 0 0 0 0 0 0 0.25 0"/>
<feBlend mode="normal" in2="BackgroundImageFix" result="effect1_dropShadow_192_34"/>
<feBlend mode="normal" in="SourceGraphic" in2="effect1_dropShadow_192_34" result="shape"/>
</filter>
</defs>
</svg>
