<svg width="224" height="95" viewBox="0 0 224 95" fill="none" xmlns="http://www.w3.org/2000/svg">
<g filter="url(#filter0_d_192_29)">
<rect x="4" width="216" height="87" rx="43.5" fill="#334D5C"/>
<path d="M43.7338 18.8714C42.1301 20.5449 42.2743 23.0307 44.0401 24.3955C44.7609 24.9479 45.6258 25.2403 46.5087 25.2891C46.7429 25.7602 47.1033 26.1827 47.5538 26.5401C49.3196 27.9211 52.0585 27.6774 53.6622 26.0039C54.419 25.2078 54.7974 24.2167 54.7793 23.2582C55.1758 23.0307 55.5542 22.7545 55.8965 22.4133C57.5002 20.7398 57.356 18.254 55.5902 16.8892C53.8243 15.5244 51.0855 15.7519 49.4818 17.4254C49.3377 17.5716 49.2295 17.7178 49.1034 17.8641C47.3736 17.0354 45.1212 17.4091 43.7338 18.8714Z" fill="#E2BA13"/>
<path d="M57.9146 17.0029C55.9686 17.1167 54.491 18.5627 54.5991 20.2362C54.6532 20.9023 54.9415 21.5197 55.41 21.9909C55.2478 22.3808 55.1757 22.787 55.1938 23.2257C55.3019 24.8991 56.9776 26.1664 58.9237 26.0527C59.8606 26.0039 60.6715 25.6465 61.2661 25.1103C61.6265 25.1916 62.0229 25.2241 62.4193 25.2078C64.3654 25.0941 65.8429 23.6481 65.7348 21.9746C65.6267 20.3011 63.9509 19.0339 62.0049 19.1476C61.8427 19.1638 61.6805 19.1801 61.5184 19.2126C61.0859 17.8478 59.6084 16.9055 57.9146 17.0029Z" fill="#EDC92F"/>
<path d="M41.2652 27.255C41.2652 25.5003 39.7516 24.0705 37.8957 24.0705C37.1389 24.0705 36.4541 24.298 35.8956 24.6879C35.4811 24.5092 35.0307 24.428 34.5441 24.428C32.6882 24.428 31.1746 25.8577 31.1746 27.6124C31.1746 28.4573 31.517 29.2209 32.0756 29.7896C31.9675 30.1145 31.8954 30.4557 31.8954 30.8131C31.8954 32.5678 33.409 33.9976 35.2649 33.9976C37.1208 33.9976 38.6344 32.5678 38.6344 30.8131C38.6344 30.6669 38.6164 30.5207 38.5984 30.3745C40.13 30.0495 41.2652 28.7822 41.2652 27.255Z" fill="#EFD35B"/>
<path d="M45.0491 28.9285C46.9951 28.831 48.4907 27.385 48.3826 25.7115C48.3465 25.0291 48.0402 24.428 47.5717 23.9405C47.7339 23.5506 47.824 23.1444 47.7879 22.7057C47.6798 21.0323 46.0221 19.765 44.076 19.8625C43.1391 19.9112 42.3282 20.2687 41.7336 20.8048C41.3732 20.7236 40.9768 20.6748 40.5804 20.7073C38.6344 20.8048 37.1388 22.2508 37.2469 23.9243C37.355 25.5978 39.0128 26.8651 40.9588 26.7676C41.121 26.7513 41.2831 26.7351 41.4453 26.7188C41.8777 28.0511 43.3553 29.0097 45.0491 28.9285Z" fill="#F9E595"/>
<path d="M74.6 32.4704C76.5461 32.3729 78.0416 30.9269 77.9335 29.2534C77.8975 28.571 77.5912 27.9699 77.1227 27.4824C77.2848 27.0925 77.3749 26.6863 77.3389 26.2476C77.2308 24.5742 75.573 23.3069 73.627 23.4044C72.69 23.4531 71.8792 23.8106 71.2846 24.3467C70.9242 24.2655 70.5278 24.2167 70.1314 24.2492C68.1853 24.3467 66.6898 25.7927 66.7979 27.4662C66.906 29.1397 68.5637 30.407 70.5098 30.3095C70.6719 30.2932 70.8341 30.277 70.9963 30.2607C71.4287 31.6093 72.9063 32.5678 74.6 32.4704Z" fill="#EFD35B"/>
<path d="M46.5807 31.8855C48.5268 31.788 50.0223 30.342 49.9142 28.6685C49.8782 27.9861 49.5719 27.385 49.1034 26.8975C49.2656 26.5076 49.3556 26.1014 49.3196 25.6627C49.2115 23.9893 47.5538 22.722 45.6077 22.8195C44.6707 22.8682 43.8599 23.2257 43.2653 23.7618C42.9049 23.6806 42.5085 23.6318 42.1121 23.6643C40.166 23.7618 38.6705 25.2078 38.7786 26.8813C38.8867 28.5548 40.5444 29.8221 42.4905 29.7246C42.6526 29.7083 42.8148 29.6921 42.977 29.6758C43.4094 31.0244 44.887 31.9667 46.5807 31.8855Z" fill="#EFD35B"/>
<path d="M54.6712 28.3273C56.6172 28.2298 58.1128 26.7838 58.0047 25.1103C57.9686 24.4442 57.6623 23.8268 57.1938 23.3394C57.356 22.9495 57.4461 22.5433 57.4101 22.1046C57.3019 20.4311 55.6442 19.1638 53.6982 19.2613C52.7612 19.3101 51.9504 19.6675 51.3557 20.2037C50.9954 20.1224 50.5989 20.0737 50.2025 20.1062C48.2565 20.2037 46.7609 21.6497 46.869 23.3231C46.9771 24.9966 48.6349 26.2639 50.5809 26.1664C50.7431 26.1502 50.9053 26.1339 51.0674 26.1177C51.4999 27.4662 52.9774 28.4248 54.6712 28.3273Z" fill="#EFD35B"/>
<path d="M71.7531 26.5401C72.8522 25.0941 72.5099 23.1444 70.9963 22.2021C70.3836 21.8121 69.6629 21.6497 68.9602 21.6984C68.7259 21.341 68.4196 21.0323 68.0232 20.7886C66.4916 19.83 64.3473 20.2362 63.2482 21.6822C62.7256 22.3646 62.5274 23.1769 62.6355 23.9243C62.3292 24.1355 62.0589 24.3792 61.8427 24.6717C60.7436 26.1177 61.0859 28.0673 62.6175 29.0097C64.1491 29.9683 66.2934 29.5621 67.3925 28.1161C67.4826 27.9861 67.5727 27.8724 67.6448 27.7424C69.0502 28.2623 70.7981 27.8074 71.7531 26.5401Z" fill="#EFD35B"/>
<path d="M56.3109 27.255C56.5451 25.5165 55.2298 23.9405 53.3918 23.7293C52.6531 23.6481 51.9323 23.8106 51.3197 24.1355C50.9233 23.9243 50.4908 23.7781 50.0223 23.7293C48.1844 23.5344 46.4906 24.7854 46.2564 26.5239C46.1483 27.3525 46.3825 28.1486 46.869 28.7822C46.7069 29.0909 46.5987 29.4321 46.5447 29.7896C46.3104 31.528 47.6258 33.104 49.4637 33.3152C51.3017 33.5102 52.9954 32.2591 53.2297 30.5207C53.2477 30.3745 53.2657 30.2282 53.2477 30.082C54.7973 29.9195 56.1127 28.7822 56.3109 27.255Z" fill="#EFD35B"/>
<path d="M51.4278 29.8058C51.1935 31.788 52.7071 33.5427 54.7973 33.7539C55.6442 33.8351 56.455 33.6564 57.1217 33.2665C57.5722 33.5102 58.0587 33.6564 58.5993 33.7214C60.6895 33.9164 62.5634 32.4866 62.7977 30.5044C62.9058 29.5621 62.6175 28.6685 62.0769 27.9699C62.2571 27.6124 62.3652 27.2387 62.4193 26.8326C62.6535 24.8504 61.1399 23.0957 59.0678 22.8845C56.9776 22.6895 55.1036 24.1193 54.8694 26.1014C54.8514 26.2639 54.8514 26.4426 54.8514 26.6051C53.0855 26.7676 51.626 28.0836 51.4278 29.8058Z" fill="#F9E595"/>
<path d="M69.2845 29.8708C70.4197 28.441 70.0954 26.4914 68.5818 25.5165C67.9691 25.1266 67.2664 24.9479 66.5457 24.9804C66.3114 24.6229 66.0051 24.3142 65.6087 24.0543C64.0951 23.0794 61.9509 23.4694 60.8157 24.8991C60.2751 25.5815 60.0769 26.3776 60.167 27.1413C59.8607 27.3362 59.5904 27.5962 59.3561 27.8886C58.239 29.3184 58.5453 31.2681 60.0589 32.2429C61.5725 33.2177 63.7167 32.8278 64.8519 31.398C64.942 31.2681 65.0321 31.1543 65.1041 31.0244C66.5457 31.5605 68.2935 31.1056 69.2845 29.8708Z" fill="#EFD35B"/>
<path d="M78.8345 26.9788C78.7083 26.865 78.5281 26.8163 78.3479 26.8488L75.6091 25.7602L72.5639 27.9536L69.1223 26.995L66.4555 29.1234L63.3563 28.0998L60.5814 30.2445L57.6983 29.1884L54.491 31.4143L51.0134 29.1397L48.4186 30.2607L45.1752 28.0186L42.4184 29.1072L39.3912 26.9138L36.4541 27.9699L33.5531 25.7927L30.6521 26.8488C30.4719 26.8163 30.2917 26.865 30.1655 26.9788C30.0394 27.0925 29.9854 27.255 30.0034 27.4175L37.319 67.0121C37.3551 67.1908 37.4992 67.337 37.6974 67.402L54.3468 71.9838C54.3468 71.9838 54.3468 71.9838 54.3649 71.9838H54.3829C54.4009 71.9838 54.4189 72 54.4369 72C54.455 72 54.473 72 54.491 72H54.509H54.527C54.545 72 54.5631 72 54.5811 72C54.5991 72 54.6171 72 54.6351 71.9838H54.6532C54.6532 71.9838 54.6532 71.9838 54.6712 71.9838L71.3206 67.402C71.5188 67.3533 71.663 67.1908 71.699 67.0121L78.9966 27.4012C79.0146 27.255 78.9606 27.0925 78.8345 26.9788Z" fill="#E5DDD7"/>
<path d="M31.8594 27.5799L38.7606 67.1746L41.4094 67.9057L35.6614 28.3111L33.7153 26.5726L31.8594 27.5799Z" fill="#EA4949"/>
<path d="M37.6794 28.701L42.8148 68.2956L45.4456 69.0105L41.4814 29.4321L39.6795 27.7099L37.6794 28.701Z" fill="#EA4949"/>
<path d="M43.4996 29.8058L46.8511 69.4004L49.4998 70.1316L47.3015 30.5369L45.1573 28.766L43.4996 29.8058Z" fill="#EA4949"/>
<path d="M49.3196 30.9269L50.9053 70.5215L53.5361 71.2364L53.1216 31.658L51.1035 29.9033L49.3196 30.9269Z" fill="#EA4949"/>
<path d="M56.0406 31.6255L55.5721 71.2039L58.2209 70.4728L59.8425 30.8944L57.6983 29.9358L56.0406 31.6255Z" fill="#BF1717"/>
<path d="M61.8606 30.5044L59.6083 70.0991L62.257 69.3679L65.6626 29.7733L63.5724 28.8147L61.8606 30.5044Z" fill="#BF1717"/>
<path d="M67.6807 29.3834L63.6625 68.978L66.3113 68.2469L71.4827 28.6685L69.4105 27.6937L67.6807 29.3834Z" fill="#BF1717"/>
<path d="M73.5009 28.2786L67.6988 67.8732L70.3476 67.1421L77.3028 27.5474L75.1586 26.5888L73.5009 28.2786Z" fill="#BF1717"/>
<path d="M93.06 38.1C92.3 38.1 91.6133 38.2333 91 38.5C90.3867 38.7533 89.8667 39.1333 89.44 39.64C89.0133 40.1333 88.6867 40.74 88.46 41.46C88.2333 42.1667 88.12 42.9667 88.12 43.86C88.12 45.0333 88.3 46.0533 88.66 46.92C89.0333 47.7867 89.58 48.4533 90.3 48.92C91.0333 49.3867 91.9467 49.62 93.04 49.62C93.6667 49.62 94.26 49.5667 94.82 49.46C95.38 49.3533 95.9267 49.22 96.46 49.06V50.62C95.9267 50.82 95.3733 50.9667 94.8 51.06C94.24 51.1533 93.5667 51.2 92.78 51.2C91.3267 51.2 90.1133 50.9 89.14 50.3C88.1667 49.7 87.4333 48.8467 86.94 47.74C86.46 46.6333 86.22 45.3333 86.22 43.84C86.22 42.76 86.3667 41.7733 86.66 40.88C86.9667 39.9867 87.4067 39.2133 87.98 38.56C88.5667 37.9067 89.2867 37.4067 90.14 37.06C90.9933 36.7 91.9733 36.52 93.08 36.52C93.8133 36.52 94.52 36.5933 95.2 36.74C95.88 36.8867 96.4867 37.0933 97.02 37.36L96.3 38.88C95.86 38.68 95.3667 38.5 94.82 38.34C94.2867 38.18 93.7 38.1 93.06 38.1ZM101.097 40.28V51H99.3367V40.28H101.097ZM100.237 36.26C100.503 36.26 100.737 36.3533 100.937 36.54C101.15 36.7133 101.257 36.9933 101.257 37.38C101.257 37.7533 101.15 38.0333 100.937 38.22C100.737 38.4067 100.503 38.5 100.237 38.5C99.9434 38.5 99.6967 38.4067 99.4967 38.22C99.2967 38.0333 99.1967 37.7533 99.1967 37.38C99.1967 36.9933 99.2967 36.7133 99.4967 36.54C99.6967 36.3533 99.9434 36.26 100.237 36.26ZM109.653 40.08C110.933 40.08 111.9 40.3933 112.553 41.02C113.206 41.6333 113.533 42.6333 113.533 44.02V51H111.793V44.14C111.793 43.2733 111.6 42.6267 111.213 42.2C110.826 41.7733 110.22 41.56 109.393 41.56C108.206 41.56 107.386 41.8933 106.933 42.56C106.48 43.2267 106.253 44.1867 106.253 45.44V51H104.493V40.28H105.913L106.173 41.74H106.273C106.513 41.3667 106.806 41.06 107.153 40.82C107.513 40.5667 107.906 40.38 108.333 40.26C108.76 40.14 109.2 40.08 109.653 40.08ZM120.996 40.08C121.916 40.08 122.703 40.28 123.356 40.68C124.023 41.08 124.53 41.6467 124.876 42.38C125.236 43.1 125.416 43.9467 125.416 44.92V45.98H118.076C118.103 47.1933 118.41 48.12 118.996 48.76C119.596 49.3867 120.43 49.7 121.496 49.7C122.176 49.7 122.776 49.64 123.296 49.52C123.83 49.3867 124.376 49.2 124.936 48.96V50.5C124.39 50.74 123.85 50.9133 123.316 51.02C122.783 51.14 122.15 51.2 121.416 51.2C120.403 51.2 119.503 50.9933 118.716 50.58C117.943 50.1667 117.336 49.5533 116.896 48.74C116.47 47.9133 116.256 46.9067 116.256 45.72C116.256 44.5467 116.45 43.54 116.836 42.7C117.236 41.86 117.79 41.2133 118.496 40.76C119.216 40.3067 120.05 40.08 120.996 40.08ZM120.976 41.52C120.136 41.52 119.47 41.7933 118.976 42.34C118.496 42.8733 118.21 43.62 118.116 44.58H123.576C123.576 43.9667 123.483 43.4333 123.296 42.98C123.11 42.5267 122.823 42.1733 122.436 41.92C122.063 41.6533 121.576 41.52 120.976 41.52ZM139.905 40.08C141.119 40.08 142.025 40.3933 142.625 41.02C143.225 41.6333 143.525 42.6333 143.525 44.02V51H141.785V44.1C141.785 43.26 141.605 42.6267 141.245 42.2C140.899 41.7733 140.352 41.56 139.605 41.56C138.565 41.56 137.819 41.86 137.365 42.46C136.925 43.06 136.705 43.9333 136.705 45.08V51H134.965V44.1C134.965 43.54 134.885 43.0733 134.725 42.7C134.565 42.3133 134.325 42.0267 134.005 41.84C133.685 41.6533 133.272 41.56 132.765 41.56C132.045 41.56 131.479 41.7133 131.065 42.02C130.652 42.3133 130.352 42.7467 130.165 43.32C129.992 43.8933 129.905 44.6 129.905 45.44V51H128.145V40.28H129.565L129.825 41.74H129.925C130.152 41.3667 130.425 41.06 130.745 40.82C131.079 40.5667 131.445 40.38 131.845 40.26C132.245 40.14 132.659 40.08 133.085 40.08C133.912 40.08 134.599 40.2267 135.145 40.52C135.705 40.8133 136.112 41.2667 136.365 41.88H136.465C136.825 41.2667 137.312 40.8133 137.925 40.52C138.552 40.2267 139.212 40.08 139.905 40.08ZM150.897 40.1C152.203 40.1 153.17 40.3867 153.797 40.96C154.423 41.5333 154.737 42.4467 154.737 43.7V51H153.457L153.117 49.48H153.037C152.73 49.8667 152.41 50.1933 152.077 50.46C151.757 50.7133 151.383 50.9 150.957 51.02C150.543 51.14 150.037 51.2 149.437 51.2C148.797 51.2 148.217 51.0867 147.697 50.86C147.19 50.6333 146.79 50.2867 146.497 49.82C146.203 49.34 146.057 48.74 146.057 48.02C146.057 46.9533 146.477 46.1333 147.317 45.56C148.157 44.9733 149.45 44.6533 151.197 44.6L153.017 44.54V43.9C153.017 43.0067 152.823 42.3867 152.437 42.04C152.05 41.6933 151.503 41.52 150.797 41.52C150.237 41.52 149.703 41.6067 149.197 41.78C148.69 41.94 148.217 42.1267 147.777 42.34L147.237 41.02C147.703 40.7667 148.257 40.5533 148.897 40.38C149.537 40.1933 150.203 40.1 150.897 40.1ZM151.417 45.82C150.083 45.8733 149.157 46.0867 148.637 46.46C148.13 46.8333 147.877 47.36 147.877 48.04C147.877 48.64 148.057 49.08 148.417 49.36C148.79 49.64 149.263 49.78 149.837 49.78C150.743 49.78 151.497 49.5333 152.097 49.04C152.697 48.5333 152.997 47.76 152.997 46.72V45.76L151.417 45.82ZM164.408 38.1C163.648 38.1 162.961 38.2333 162.348 38.5C161.734 38.7533 161.214 39.1333 160.788 39.64C160.361 40.1333 160.034 40.74 159.808 41.46C159.581 42.1667 159.468 42.9667 159.468 43.86C159.468 45.0333 159.648 46.0533 160.008 46.92C160.381 47.7867 160.928 48.4533 161.648 48.92C162.381 49.3867 163.294 49.62 164.388 49.62C165.014 49.62 165.608 49.5667 166.168 49.46C166.728 49.3533 167.274 49.22 167.808 49.06V50.62C167.274 50.82 166.721 50.9667 166.148 51.06C165.588 51.1533 164.914 51.2 164.128 51.2C162.674 51.2 161.461 50.9 160.488 50.3C159.514 49.7 158.781 48.8467 158.288 47.74C157.808 46.6333 157.568 45.3333 157.568 43.84C157.568 42.76 157.714 41.7733 158.008 40.88C158.314 39.9867 158.754 39.2133 159.328 38.56C159.914 37.9067 160.634 37.4067 161.488 37.06C162.341 36.7 163.321 36.52 164.428 36.52C165.161 36.52 165.868 36.5933 166.548 36.74C167.228 36.8867 167.834 37.0933 168.368 37.36L167.648 38.88C167.208 38.68 166.714 38.5 166.168 38.34C165.634 38.18 165.048 38.1 164.408 38.1ZM180.004 45.62C180.004 46.5133 179.884 47.3067 179.644 48C179.418 48.68 179.084 49.26 178.644 49.74C178.218 50.22 177.691 50.5867 177.064 50.84C176.451 51.08 175.764 51.2 175.004 51.2C174.298 51.2 173.644 51.08 173.044 50.84C172.444 50.5867 171.924 50.22 171.484 49.74C171.044 49.26 170.698 48.68 170.444 48C170.204 47.3067 170.084 46.5133 170.084 45.62C170.084 44.4333 170.284 43.4333 170.684 42.62C171.084 41.7933 171.658 41.1667 172.404 40.74C173.151 40.3 174.038 40.08 175.064 40.08C176.038 40.08 176.891 40.3 177.624 40.74C178.371 41.1667 178.951 41.7933 179.364 42.62C179.791 43.4333 180.004 44.4333 180.004 45.62ZM171.904 45.62C171.904 46.46 172.011 47.1933 172.224 47.82C172.451 48.4333 172.798 48.9067 173.264 49.24C173.731 49.5733 174.324 49.74 175.044 49.74C175.764 49.74 176.358 49.5733 176.824 49.24C177.291 48.9067 177.631 48.4333 177.844 47.82C178.071 47.1933 178.184 46.46 178.184 45.62C178.184 44.7667 178.071 44.04 177.844 43.44C177.618 42.84 177.271 42.38 176.804 42.06C176.351 41.7267 175.758 41.56 175.024 41.56C173.931 41.56 173.138 41.92 172.644 42.64C172.151 43.36 171.904 44.3533 171.904 45.62ZM187.794 40.08C187.994 40.08 188.207 40.0933 188.434 40.12C188.674 40.1333 188.88 40.16 189.054 40.2L188.834 41.82C188.66 41.78 188.467 41.7467 188.254 41.72C188.054 41.6933 187.86 41.68 187.674 41.68C187.26 41.68 186.867 41.7667 186.494 41.94C186.12 42.1133 185.787 42.36 185.494 42.68C185.2 42.9867 184.967 43.36 184.794 43.8C184.634 44.24 184.554 44.7333 184.554 45.28V51H182.794V40.28H184.234L184.434 42.24H184.514C184.74 41.84 185.014 41.48 185.334 41.16C185.654 40.8267 186.02 40.5667 186.434 40.38C186.847 40.18 187.3 40.08 187.794 40.08ZM196.215 40.08C197.495 40.08 198.462 40.3933 199.115 41.02C199.769 41.6333 200.095 42.6333 200.095 44.02V51H198.355V44.14C198.355 43.2733 198.162 42.6267 197.775 42.2C197.389 41.7733 196.782 41.56 195.955 41.56C194.769 41.56 193.949 41.8933 193.495 42.56C193.042 43.2267 192.815 44.1867 192.815 45.44V51H191.055V40.28H192.475L192.735 41.74H192.835C193.075 41.3667 193.369 41.06 193.715 40.82C194.075 40.5667 194.469 40.38 194.895 40.26C195.322 40.14 195.762 40.08 196.215 40.08Z" fill="white"/>
</g>
<defs>
<filter id="filter0_d_192_29" x="0" y="0" width="224" height="95" filterUnits="userSpaceOnUse" color-interpolation-filters="sRGB">
<feFlood flood-opacity="0" result="BackgroundImageFix"/>
<feColorMatrix in="SourceAlpha" type="matrix" values="0 0 0 0 0 0 0 0 0 0 0 0 0 0 0 0 0 0 127 0" result="hardAlpha"/>
<feOffset dy="4"/>
<feGaussianBlur stdDeviation="2"/>
<feComposite in2="hardAlpha" operator="out"/>
<feColorMatrix type="matrix" values="0 0 0 0 0 0 0 0 0 0 0 0 0 0 0 0 0 0 0.25 0"/>
<feBlend mode="normal" in2="BackgroundImageFix" result="effect1_dropShadow_192_29"/>
<feBlend mode="normal" in="SourceGraphic" in2="effect1_dropShadow_192_29" result="shape"/>
</filter>
</defs>
</svg>
