<svg width="100" height="95" viewBox="0 0 100 95" fill="none" xmlns="http://www.w3.org/2000/svg">
<g filter="url(#filter0_d_192_34)">
<rect x="4" width="92" height="87" rx="43.5" fill="#717273" fill-opacity="0.5"/>
<g clip-path="url(#clip0_192_34)">
<g filter="url(#filter1_d_192_34)">
<path d="M57.86 22.06C57.86 20.44 56.72 19.1 55.22 18.76C54.96 18.7 54.74 18.52 54.64 18.28C54.18 16.94 52.92 16 51.44 16C49.96 16 48.72 16.94 48.24 18.26C48.16 18.52 47.94 18.68 47.68 18.74C46.16 19.08 45.04 20.44 45.04 22.06C45.04 23.68 46.18 25.02 47.68 25.36C47.94 25.42 48.16 25.6 48.26 25.84C48.72 27.16 49.98 28.1 51.46 28.1C52.94 28.1 54.18 27.16 54.66 25.84C54.74 25.58 54.98 25.4 55.24 25.36C56.72 25.02 57.86 23.66 57.86 22.06Z" fill="#F9C23C"/>
</g>
<g filter="url(#filter2_d_192_34)">
<path d="M56.1236 22.5045C56.7398 21.989 57.5354 21.6799 58.4002 21.6799C59.9402 21.6799 61.2602 22.6599 61.7402 24.0399C61.8402 24.3199 62.0602 24.4999 62.3402 24.5599C63.9402 24.9199 65.1202 26.3199 65.1202 28.0199C65.1202 29.7199 63.9402 31.1199 62.3402 31.4799C62.0602 31.5399 61.8402 31.7399 61.7402 31.9999C61.2602 33.38 59.9402 34.36 58.4002 34.36C57.1382 34.36 56.024 33.7018 55.3986 32.7048C54.8542 33.0806 54.1952 33.3 53.48 33.3C52 33.3 50.74 32.36 50.28 31.04C50.18 30.8 49.96 30.62 49.7 30.56C49.5146 30.5179 49.3346 30.4606 49.1616 30.3893C48.6722 30.9259 48.0188 31.3137 47.2802 31.4799C47.0002 31.5399 46.7802 31.7399 46.6802 31.9999C46.2002 33.38 44.8802 34.36 43.3402 34.36C41.8002 34.36 40.4802 33.38 40.0002 31.9999C39.9202 31.7199 39.6802 31.5399 39.4002 31.4799C37.8201 31.1199 36.6401 29.7199 36.6401 28.0199C36.6401 26.3199 37.8201 24.9199 39.4002 24.5599C39.6802 24.4999 39.9202 24.3199 40.0002 24.0399C40.5002 22.6599 41.8002 21.6799 43.3602 21.6799C44.9002 21.6799 46.2202 22.6599 46.7002 24.0399C46.8002 24.3199 47.0202 24.4999 47.3002 24.5599C47.5754 24.6219 47.8382 24.7146 48.0848 24.8343C48.5224 24.4076 49.0726 24.0995 49.68 23.96C49.94 23.92 50.18 23.74 50.26 23.48C50.74 22.16 51.98 21.22 53.46 21.22C54.5402 21.22 55.5032 21.7207 56.1236 22.5045Z" fill="#FCD53F"/>
</g>
<g filter="url(#filter3_d_192_34)">
<path d="M57.0598 28.8401C58.369 28.8401 59.5192 29.5484 60.1296 30.6086C60.7708 29.7055 61.8296 29.1201 63.0198 29.1201C64.5598 29.1201 65.8798 30.1001 66.3598 31.4801C66.4598 31.7601 66.6798 31.9401 66.9598 32.0002C68.5598 32.3602 69.7398 33.7602 69.7398 35.4602C69.7398 37.1402 68.5598 38.5602 66.9598 38.9202C66.6798 38.9802 66.4598 39.1802 66.3598 39.4402C65.8798 40.8202 64.5598 41.8002 63.0198 41.8002C61.7106 41.8002 60.5604 41.0918 59.9502 40.0316C59.309 40.9346 58.2502 41.52 57.0598 41.52C55.5822 41.52 54.3072 40.6178 53.7822 39.3258C53.3806 39.5378 52.9336 39.6756 52.46 39.72C50.94 39.86 49.58 39.04 48.96 37.78C48.32 39.04 46.98 39.86 45.46 39.72C44.6284 39.6408 43.875 39.2724 43.307 38.7168C43.107 38.8028 42.8974 38.8712 42.68 38.9202C42.4 38.9802 42.18 39.1802 42.08 39.4402C41.6 40.8202 40.28 41.8002 38.74 41.8002C37.2 41.8002 35.88 40.8202 35.4 39.4402C35.3 39.1602 35.08 38.9802 34.8 38.9202C33.2 38.5602 32.02 37.1602 32.02 35.4602C32.02 33.7602 33.22 32.3402 34.8 32.0002C35.08 31.9401 35.3 31.7401 35.4 31.4801C35.88 30.1001 37.2 29.1201 38.74 29.1201C40.3 29.1201 41.6 30.1001 42.08 31.4801C42.18 31.7601 42.4 31.9401 42.68 32.0002C43.3482 32.1504 43.9432 32.4822 44.4094 32.9414C44.498 32.9042 44.5882 32.8704 44.68 32.84C45.06 32.72 45.36 32.42 45.5 32.04C45.96 30.6001 47.28 29.5801 48.86 29.5801C50.42 29.5801 51.74 30.5801 52.22 31.9801C52.2268 32.0022 52.234 32.024 52.242 32.0454C52.516 31.9008 52.8106 31.7905 53.1198 31.7201C53.3998 31.6601 53.6198 31.4601 53.7198 31.2001C54.1998 29.8201 55.5198 28.8401 57.0598 28.8401Z" fill="#FFF478"/>
</g>
<g filter="url(#filter4_d_192_34)">
<path d="M45.4802 40.26C45.3602 37.48 47.6002 35.16 50.3802 35.16C53.1602 35.16 55.3802 37.48 55.2802 40.26L62.7802 39.18C62.9602 37.08 64.7002 35.46 66.8202 35.46C69.3002 35.46 71.2002 37.68 70.8002 40.14L66.1402 69.64C65.9202 71.02 64.7202 72.04 63.3202 72.04H60.1802L57.3654 63.6086L54.0402 72.02H46.7202L44.1478 65.4122L40.6602 72.04H37.5202C36.1202 72.04 34.9202 71.02 34.7002 69.64L30.0402 40.14C29.6602 37.68 31.5602 35.46 34.0402 35.46C36.1602 35.46 37.9202 37.08 38.0602 39.18L45.4802 40.26Z" fill="#F8312F"/>
</g>
<path d="M40.5602 72.04L37.9802 39.48C37.8002 37.3 39.5202 35.46 41.6802 35.46C43.6802 35.46 45.3202 37.04 45.4002 39.04L46.7202 72.04H40.5602Z" fill="#F4F4F4"/>
<path d="M54.04 72.04L55.34 39.04C55.42 37.04 57.06 35.46 59.06 35.46C61.24 35.46 62.96 37.32 62.78 39.48L60.2 72.04H54.04Z" fill="#F4F4F4"/>
</g>
</g>
<defs>
<filter id="filter0_d_192_34" x="0" y="0" width="100" height="95" filterUnits="userSpaceOnUse" color-interpolation-filters="sRGB">
<feFlood flood-opacity="0" result="BackgroundImageFix"/>
<feColorMatrix in="SourceAlpha" type="matrix" values="0 0 0 0 0 0 0 0 0 0 0 0 0 0 0 0 0 0 127 0" result="hardAlpha"/>
<feOffset dy="4"/>
<feGaussianBlur stdDeviation="2"/>
<feComposite in2="hardAlpha" operator="out"/>
<feColorMatrix type="matrix" values="0 0 0 0 0 0 0 0 0 0 0 0 0 0 0 0 0 0 0.25 0"/>
<feBlend mode="normal" in2="BackgroundImageFix" result="effect1_dropShadow_192_34"/>
<feBlend mode="normal" in="SourceGraphic" in2="effect1_dropShadow_192_34" result="shape"/>
</filter>
<filter id="filter1_d_192_34" x="41.04" y="16" width="20.82" height="20.1" filterUnits="userSpaceOnUse" color-interpolation-filters="sRGB">
<feFlood flood-opacity="0" result="BackgroundImageFix"/>
<feColorMatrix in="SourceAlpha" type="matrix" values="0 0 0 0 0 0 0 0 0 0 0 0 0 0 0 0 0 0 127 0" result="hardAlpha"/>
<feOffset dy="4"/>
<feGaussianBlur stdDeviation="2"/>
<feComposite in2="hardAlpha" operator="out"/>
<feColorMatrix type="matrix" values="0 0 0 0 0 0 0 0 0 0 0 0 0 0 0 0 0 0 0.25 0"/>
<feBlend mode="normal" in2="BackgroundImageFix" result="effect1_dropShadow_192_34"/>
<feBlend mode="normal" in="SourceGraphic" in2="effect1_dropShadow_192_34" result="shape"/>
</filter>
<filter id="filter2_d_192_34" x="32.6401" y="21.22" width="36.48" height="21.14" filterUnits="userSpaceOnUse" color-interpolation-filters="sRGB">
<feFlood flood-opacity="0" result="BackgroundImageFix"/>
<feColorMatrix in="SourceAlpha" type="matrix" values="0 0 0 0 0 0 0 0 0 0 0 0 0 0 0 0 0 0 127 0" result="hardAlpha"/>
<feOffset dy="4"/>
<feGaussianBlur stdDeviation="2"/>
<feComposite in2="hardAlpha" operator="out"/>
<feColorMatrix type="matrix" values="0 0 0 0 0 0 0 0 0 0 0 0 0 0 0 0 0 0 0.25 0"/>
<feBlend mode="normal" in2="BackgroundImageFix" result="effect1_dropShadow_192_34"/>
<feBlend mode="normal" in="SourceGraphic" in2="effect1_dropShadow_192_34" result="shape"/>
</filter>
<filter id="filter3_d_192_34" x="28.02" y="28.8401" width="45.7198" height="20.9601" filterUnits="userSpaceOnUse" color-interpolation-filters="sRGB">
<feFlood flood-opacity="0" result="BackgroundImageFix"/>
<feColorMatrix in="SourceAlpha" type="matrix" values="0 0 0 0 0 0 0 0 0 0 0 0 0 0 0 0 0 0 127 0" result="hardAlpha"/>
<feOffset dy="4"/>
<feGaussianBlur stdDeviation="2"/>
<feComposite in2="hardAlpha" operator="out"/>
<feColorMatrix type="matrix" values="0 0 0 0 0 0 0 0 0 0 0 0 0 0 0 0 0 0 0.25 0"/>
<feBlend mode="normal" in2="BackgroundImageFix" result="effect1_dropShadow_192_34"/>
<feBlend mode="normal" in="SourceGraphic" in2="effect1_dropShadow_192_34" result="shape"/>
</filter>
<filter id="filter4_d_192_34" x="25.9917" y="35.16" width="48.8619" height="44.88" filterUnits="userSpaceOnUse" color-interpolation-filters="sRGB">
<feFlood flood-opacity="0" result="BackgroundImageFix"/>
<feColorMatrix in="SourceAlpha" type="matrix" values="0 0 0 0 0 0 0 0 0 0 0 0 0 0 0 0 0 0 127 0" result="hardAlpha"/>
<feOffset dy="4"/>
<feGaussianBlur stdDeviation="2"/>
<feComposite in2="hardAlpha" operator="out"/>
<feColorMatrix type="matrix" values="0 0 0 0 0 0 0 0 0 0 0 0 0 0 0 0 0 0 0.25 0"/>
<feBlend mode="normal" in2="BackgroundImageFix" result="effect1_dropShadow_192_34"/>
<feBlend mode="normal" in="SourceGraphic" in2="effect1_dropShadow_192_34" result="shape"/>
</filter>
<clipPath id="clip0_192_34">
<rect x="18" y="12" width="64" height="64" rx="32" fill="white"/>
</clipPath>
</defs>
</svg>
