<svg width="24" height="24" viewBox="0 0 24 24" fill="none" xmlns="http://www.w3.org/2000/svg">
<g filter="url(#filter0_d_192_34)">
<rect x="4" width="16" height="16" rx="8" fill="#717273" fill-opacity="0.5"/>
<g clip-path="url(#clip0_192_34)">
<g filter="url(#filter1_d_192_34)">
<path d="M13.367 4.05701C13.367 3.75908 13.1687 3.51265 12.9078 3.45012C12.8626 3.43908 12.8243 3.40598 12.807 3.36184C12.727 3.11541 12.5078 2.94253 12.2504 2.94253C11.993 2.94253 11.7774 3.11541 11.6939 3.35816C11.68 3.40598 11.6417 3.43541 11.5965 3.44644C11.3322 3.50897 11.1374 3.75908 11.1374 4.05701C11.1374 4.35495 11.3357 4.60138 11.5965 4.66391C11.6417 4.67495 11.68 4.70805 11.6974 4.75219C11.7774 4.99495 11.9965 5.16782 12.2539 5.16782C12.5113 5.16782 12.727 4.99495 12.8104 4.75219C12.8243 4.70437 12.8661 4.67127 12.9113 4.66391C13.1687 4.60138 13.367 4.35127 13.367 4.05701Z" fill="#F9C23C"/>
</g>
<g filter="url(#filter2_d_192_34)">
<path d="M13.0649 4.13875C13.1721 4.04396 13.3105 3.98712 13.4609 3.98712C13.7287 3.98712 13.9583 4.16735 14.0417 4.42114C14.0591 4.47263 14.0974 4.50574 14.1461 4.51677C14.4244 4.58298 14.6296 4.84045 14.6296 5.15309C14.6296 5.46574 14.4244 5.72321 14.1461 5.78942C14.0974 5.80045 14.0591 5.83723 14.0417 5.88505C13.9583 6.13885 13.7287 6.31908 13.4609 6.31908C13.2414 6.31908 13.0476 6.19803 12.9389 6.01468C12.8442 6.08379 12.7296 6.12414 12.6052 6.12414C12.3478 6.12414 12.1287 5.95127 12.0487 5.7085C12.0313 5.66437 11.993 5.63126 11.9478 5.62023C11.9156 5.61249 11.8842 5.60195 11.8542 5.58884C11.769 5.68753 11.6554 5.75885 11.527 5.78942C11.4783 5.80045 11.44 5.83723 11.4226 5.88505C11.3391 6.13885 11.1096 6.31908 10.8417 6.31908C10.5739 6.31908 10.3444 6.13885 10.2609 5.88505C10.247 5.83355 10.2052 5.80045 10.1565 5.78942C9.88173 5.72321 9.67651 5.46574 9.67651 5.15309C9.67651 4.84045 9.88173 4.58298 10.1565 4.51677C10.2052 4.50574 10.247 4.47263 10.2609 4.42114C10.3478 4.16735 10.5739 3.98712 10.8452 3.98712C11.113 3.98712 11.3426 4.16735 11.4261 4.42114C11.4435 4.47263 11.4817 4.50574 11.5304 4.51677C11.5783 4.52816 11.624 4.54521 11.6669 4.56723C11.743 4.48875 11.8387 4.4321 11.9443 4.40643C11.9895 4.39908 12.0313 4.36598 12.0452 4.31816C12.1287 4.0754 12.3443 3.90253 12.6017 3.90253C12.7896 3.90253 12.957 3.99462 13.0649 4.13875Z" fill="#FCD53F"/>
</g>
<g filter="url(#filter3_d_192_34)">
<path d="M13.2278 5.30392C13.4555 5.30392 13.6555 5.43419 13.7617 5.62917C13.8732 5.46309 14.0573 5.35543 14.2643 5.35543C14.5321 5.35543 14.7617 5.53566 14.8452 5.78945C14.8626 5.84094 14.9008 5.87405 14.9495 5.8851C15.2278 5.9513 15.433 6.20877 15.433 6.52142C15.433 6.83038 15.2278 7.09153 14.9495 7.15774C14.9008 7.16877 14.8626 7.20556 14.8452 7.25337C14.7617 7.50716 14.5321 7.68739 14.2643 7.68739C14.0366 7.68739 13.8366 7.55711 13.7305 7.36214C13.619 7.5282 13.4348 7.63586 13.2278 7.63586C12.9708 7.63586 12.7491 7.46994 12.6578 7.23233C12.5879 7.27132 12.5102 7.29666 12.4278 7.30483C12.1635 7.33058 11.927 7.17977 11.8191 6.94805C11.7078 7.17977 11.4748 7.33058 11.2104 7.30483C11.0658 7.29026 10.9348 7.22251 10.836 7.12033C10.8012 7.13615 10.7648 7.14873 10.727 7.15774C10.6783 7.16877 10.64 7.20556 10.6226 7.25337C10.5391 7.50716 10.3096 7.68739 10.0417 7.68739C9.77392 7.68739 9.54435 7.50716 9.46087 7.25337C9.44348 7.20188 9.40522 7.16877 9.35653 7.15774C9.07826 7.09153 8.87305 6.83406 8.87305 6.52142C8.87305 6.20877 9.08174 5.94762 9.35653 5.8851C9.40522 5.87405 9.44348 5.83727 9.46087 5.78945C9.54435 5.53566 9.77392 5.35543 10.0417 5.35543C10.313 5.35543 10.5391 5.53566 10.6226 5.78945C10.64 5.84094 10.6783 5.87405 10.727 5.8851C10.8432 5.91272 10.9466 5.97374 11.0277 6.05819C11.0431 6.05135 11.0588 6.04513 11.0748 6.03954C11.1409 6.01747 11.193 5.9623 11.2174 5.89242C11.2974 5.6276 11.527 5.44002 11.8017 5.44002C12.073 5.44002 12.3026 5.62392 12.3861 5.8814C12.3873 5.88546 12.3885 5.88947 12.3899 5.89341C12.4376 5.86682 12.4888 5.84654 12.5426 5.83358C12.5913 5.82255 12.6295 5.78576 12.6469 5.73795C12.7304 5.48415 12.96 5.30392 13.2278 5.30392Z" fill="#FFF478"/>
</g>
<path d="M11.2139 7.40414C11.193 6.89288 11.5826 6.46621 12.0661 6.46621C12.5496 6.46621 12.9357 6.89288 12.9183 7.40414L14.2226 7.20552C14.2539 6.81931 14.5565 6.52138 14.9252 6.52138C15.3565 6.52138 15.687 6.92966 15.6174 7.38207L14.807 12.8074C14.7687 13.0612 14.56 13.2487 14.3165 13.2487H13.7704L13.2809 11.6981L12.7026 13.2451H11.4296L10.9822 12.0298L10.3757 13.2487H9.82957C9.5861 13.2487 9.3774 13.0612 9.33914 12.8074L8.5287 7.38207C8.46262 6.92966 8.79305 6.52138 9.22436 6.52138C9.59305 6.52138 9.89914 6.81931 9.92348 7.20552L11.2139 7.40414Z" fill="#F8312F"/>
<path d="M10.3583 13.2487L9.9096 7.26069C9.8783 6.85977 10.1774 6.52138 10.5531 6.52138C10.9009 6.52138 11.1861 6.81196 11.2 7.17977L11.4296 13.2487H10.3583Z" fill="#F4F4F4"/>
<path d="M12.7026 13.2487L12.9287 7.17977C12.9426 6.81196 13.2278 6.52138 13.5756 6.52138C13.9547 6.52138 14.2539 6.86345 14.2226 7.26069L13.7739 13.2487H12.7026Z" fill="#F4F4F4"/>
</g>
</g>
<defs>
<filter id="filter0_d_192_34" x="0" y="0" width="24" height="24" filterUnits="userSpaceOnUse" color-interpolation-filters="sRGB">
<feFlood flood-opacity="0" result="BackgroundImageFix"/>
<feColorMatrix in="SourceAlpha" type="matrix" values="0 0 0 0 0 0 0 0 0 0 0 0 0 0 0 0 0 0 127 0" result="hardAlpha"/>
<feOffset dy="4"/>
<feGaussianBlur stdDeviation="2"/>
<feComposite in2="hardAlpha" operator="out"/>
<feColorMatrix type="matrix" values="0 0 0 0 0 0 0 0 0 0 0 0 0 0 0 0 0 0 0.25 0"/>
<feBlend mode="normal" in2="BackgroundImageFix" result="effect1_dropShadow_192_34"/>
<feBlend mode="normal" in="SourceGraphic" in2="effect1_dropShadow_192_34" result="shape"/>
</filter>
<filter id="filter1_d_192_34" x="7.13739" y="2.94253" width="10.2296" height="10.2253" filterUnits="userSpaceOnUse" color-interpolation-filters="sRGB">
<feFlood flood-opacity="0" result="BackgroundImageFix"/>
<feColorMatrix in="SourceAlpha" type="matrix" values="0 0 0 0 0 0 0 0 0 0 0 0 0 0 0 0 0 0 127 0" result="hardAlpha"/>
<feOffset dy="4"/>
<feGaussianBlur stdDeviation="2"/>
<feComposite in2="hardAlpha" operator="out"/>
<feColorMatrix type="matrix" values="0 0 0 0 0 0 0 0 0 0 0 0 0 0 0 0 0 0 0.25 0"/>
<feBlend mode="normal" in2="BackgroundImageFix" result="effect1_dropShadow_192_34"/>
<feBlend mode="normal" in="SourceGraphic" in2="effect1_dropShadow_192_34" result="shape"/>
</filter>
<filter id="filter2_d_192_34" x="5.67651" y="3.90253" width="12.9531" height="10.4166" filterUnits="userSpaceOnUse" color-interpolation-filters="sRGB">
<feFlood flood-opacity="0" result="BackgroundImageFix"/>
<feColorMatrix in="SourceAlpha" type="matrix" values="0 0 0 0 0 0 0 0 0 0 0 0 0 0 0 0 0 0 127 0" result="hardAlpha"/>
<feOffset dy="4"/>
<feGaussianBlur stdDeviation="2"/>
<feComposite in2="hardAlpha" operator="out"/>
<feColorMatrix type="matrix" values="0 0 0 0 0 0 0 0 0 0 0 0 0 0 0 0 0 0 0.25 0"/>
<feBlend mode="normal" in2="BackgroundImageFix" result="effect1_dropShadow_192_34"/>
<feBlend mode="normal" in="SourceGraphic" in2="effect1_dropShadow_192_34" result="shape"/>
</filter>
<filter id="filter3_d_192_34" x="4.87305" y="5.30392" width="14.5599" height="10.3835" filterUnits="userSpaceOnUse" color-interpolation-filters="sRGB">
<feFlood flood-opacity="0" result="BackgroundImageFix"/>
<feColorMatrix in="SourceAlpha" type="matrix" values="0 0 0 0 0 0 0 0 0 0 0 0 0 0 0 0 0 0 127 0" result="hardAlpha"/>
<feOffset dy="4"/>
<feGaussianBlur stdDeviation="2"/>
<feComposite in2="hardAlpha" operator="out"/>
<feColorMatrix type="matrix" values="0 0 0 0 0 0 0 0 0 0 0 0 0 0 0 0 0 0 0.25 0"/>
<feBlend mode="normal" in2="BackgroundImageFix" result="effect1_dropShadow_192_34"/>
<feBlend mode="normal" in="SourceGraphic" in2="effect1_dropShadow_192_34" result="shape"/>
</filter>
<clipPath id="clip0_192_34">
<rect x="6.43475" y="2.2069" width="11.1304" height="11.7701" rx="5.56522" fill="white"/>
</clipPath>
</defs>
</svg>
